<svg xmlns="http://www.w3.org/2000/svg" xmlns:xlink="http://www.w3.org/1999/xlink" width="50" zoomAndPan="magnify" viewBox="0 0 37.5 37.499999" height="50" preserveAspectRatio="xMidYMid meet" version="1.0"><defs><clipPath id="c6b6890811"><path d="M 0 0 L 37.007812 0 L 37.007812 37.007812 L 0 37.007812 Z M 0 0 " clip-rule="nonzero"/></clipPath><clipPath id="858805f102"><path d="M 26 6.109375 L 28 6.109375 L 28 9 L 26 9 Z M 26 6.109375 " clip-rule="nonzero"/></clipPath><clipPath id="46d0b03e0c"><path d="M 24 29 L 30 29 L 30 30.53125 L 24 30.53125 Z M 24 29 " clip-rule="nonzero"/></clipPath><clipPath id="460642a652"><path d="M 2.6875 9 L 4 9 L 4 11 L 2.6875 11 Z M 2.6875 9 " clip-rule="nonzero"/></clipPath><clipPath id="a338389e17"><path d="M 9 6.109375 L 11 6.109375 L 11 9 L 9 9 Z M 9 6.109375 " clip-rule="nonzero"/></clipPath><clipPath id="b0d8ec760a"><path d="M 33 9 L 34.515625 9 L 34.515625 11 L 33 11 Z M 33 9 " clip-rule="nonzero"/></clipPath><clipPath id="5510c2d939"><path d="M 30 6.109375 L 32 6.109375 L 32 14 L 30 14 Z M 30 6.109375 " clip-rule="nonzero"/></clipPath><clipPath id="c4b7a0b24c"><path d="M 7 29 L 13 29 L 13 30.53125 L 7 30.53125 Z M 7 29 " clip-rule="nonzero"/></clipPath><clipPath id="8964694bdc"><path d="M 5 6.109375 L 7 6.109375 L 7 14 L 5 14 Z M 5 6.109375 " clip-rule="nonzero"/></clipPath><clipPath id="dcd242de73"><path d="M 20 24 L 22 24 L 22 30.53125 L 20 30.53125 Z M 20 24 " clip-rule="nonzero"/></clipPath><clipPath id="49f71df424"><path d="M 15 24 L 17 24 L 17 30.53125 L 15 30.53125 Z M 15 24 " clip-rule="nonzero"/></clipPath></defs><g clip-path="url(#c6b6890811)"><path fill="#ffffff" d="M 0 0 L 37.007812 0 L 37.007812 37.007812 L 0 37.007812 Z M 0 0 " fill-opacity="1" fill-rule="nonzero"/><path fill="#000000" d="M 0 0 L 37.007812 0 L 37.007812 37.007812 L 0 37.007812 Z M 0 0 " fill-opacity="1" fill-rule="nonzero"/></g><g clip-path="url(#858805f102)"><path fill="#ffffff" d="M 27.65625 6.832031 C 27.652344 6.652344 27.585938 6.5 27.457031 6.375 C 27.328125 6.246094 27.175781 6.183594 26.996094 6.183594 C 26.8125 6.183594 26.660156 6.246094 26.53125 6.375 C 26.402344 6.5 26.335938 6.652344 26.332031 6.832031 L 26.332031 8.820312 L 27.65625 8.820312 Z M 27.65625 6.832031 " fill-opacity="1" fill-rule="nonzero"/></g><g clip-path="url(#46d0b03e0c)"><path fill="#ffffff" d="M 25.464844 29.667969 L 24.710938 30.792969 L 29.277344 30.792969 L 28.523438 29.667969 Z M 25.464844 29.667969 " fill-opacity="1" fill-rule="nonzero"/></g><g clip-path="url(#460642a652)"><path fill="#ffffff" d="M 2.6875 9.539062 L 3.5625 9.539062 L 3.5625 10.464844 L 2.6875 10.464844 Z M 2.6875 9.539062 " fill-opacity="1" fill-rule="nonzero"/></g><path fill="#ffffff" d="M 4.738281 7.703125 C 4.613281 7.703125 4.503906 7.75 4.414062 7.839844 C 4.324219 7.929688 4.28125 8.035156 4.28125 8.164062 L 4.28125 11.835938 C 4.28125 11.964844 4.324219 12.070312 4.414062 12.160156 C 4.503906 12.25 4.613281 12.296875 4.738281 12.296875 C 4.867188 12.296875 4.972656 12.25 5.0625 12.160156 C 5.152344 12.070312 5.199219 11.964844 5.199219 11.835938 L 5.199219 8.164062 C 5.199219 8.035156 5.152344 7.929688 5.0625 7.839844 C 4.972656 7.75 4.867188 7.703125 4.738281 7.703125 Z M 4.738281 7.703125 " fill-opacity="1" fill-rule="nonzero"/><path fill="#ffffff" d="M 9.347656 11.183594 L 9.347656 28.949219 L 10.675781 28.949219 L 10.675781 11.183594 Z M 10.371094 21.582031 C 10.371094 21.679688 10.335938 21.765625 10.265625 21.835938 C 10.195312 21.90625 10.109375 21.941406 10.011719 21.941406 C 9.914062 21.941406 9.828125 21.90625 9.757812 21.835938 C 9.6875 21.765625 9.652344 21.679688 9.652344 21.582031 L 9.652344 21.515625 C 9.652344 21.414062 9.6875 21.332031 9.757812 21.261719 C 9.828125 21.191406 9.914062 21.15625 10.011719 21.15625 C 10.109375 21.15625 10.195312 21.191406 10.265625 21.261719 C 10.335938 21.332031 10.371094 21.414062 10.371094 21.515625 Z M 10.371094 18.910156 C 10.371094 19.007812 10.335938 19.09375 10.265625 19.164062 C 10.195312 19.234375 10.109375 19.269531 10.011719 19.269531 C 9.914062 19.269531 9.828125 19.234375 9.757812 19.164062 C 9.6875 19.09375 9.652344 19.007812 9.652344 18.910156 L 9.652344 18.839844 C 9.652344 18.742188 9.6875 18.65625 9.757812 18.585938 C 9.828125 18.515625 9.914062 18.480469 10.011719 18.480469 C 10.109375 18.480469 10.195312 18.515625 10.265625 18.585938 C 10.335938 18.65625 10.371094 18.742188 10.371094 18.839844 Z M 10.371094 16.347656 C 10.371094 16.445312 10.335938 16.53125 10.265625 16.601562 C 10.195312 16.671875 10.109375 16.707031 10.011719 16.707031 C 9.914062 16.707031 9.828125 16.671875 9.757812 16.601562 C 9.6875 16.53125 9.652344 16.445312 9.652344 16.347656 L 9.652344 16.28125 C 9.652344 16.179688 9.6875 16.097656 9.757812 16.027344 C 9.828125 15.957031 9.914062 15.921875 10.011719 15.921875 C 10.109375 15.921875 10.195312 15.957031 10.265625 16.027344 C 10.335938 16.097656 10.371094 16.179688 10.371094 16.28125 Z M 10.371094 13.675781 C 10.371094 13.773438 10.335938 13.859375 10.265625 13.929688 C 10.195312 14 10.109375 14.035156 10.011719 14.035156 C 9.914062 14.035156 9.828125 14 9.757812 13.929688 C 9.6875 13.859375 9.652344 13.773438 9.652344 13.675781 L 9.652344 13.609375 C 9.652344 13.507812 9.6875 13.421875 9.757812 13.351562 C 9.828125 13.285156 9.914062 13.25 10.011719 13.25 C 10.109375 13.25 10.195312 13.285156 10.265625 13.351562 C 10.335938 13.421875 10.371094 13.507812 10.371094 13.609375 Z M 10.371094 13.675781 " fill-opacity="1" fill-rule="nonzero"/><g clip-path="url(#a338389e17)"><path fill="#ffffff" d="M 10.675781 6.832031 C 10.671875 6.652344 10.605469 6.5 10.476562 6.375 C 10.347656 6.246094 10.191406 6.183594 10.011719 6.183594 C 9.832031 6.183594 9.675781 6.246094 9.546875 6.375 C 9.417969 6.5 9.351562 6.652344 9.347656 6.832031 L 9.347656 8.820312 L 10.675781 8.820312 Z M 10.675781 6.832031 " fill-opacity="1" fill-rule="nonzero"/></g><g clip-path="url(#b0d8ec760a)"><path fill="#ffffff" d="M 33.445312 9.539062 L 34.316406 9.539062 L 34.316406 10.464844 L 33.445312 10.464844 Z M 33.445312 9.539062 " fill-opacity="1" fill-rule="nonzero"/></g><g clip-path="url(#5510c2d939)"><path fill="#ffffff" d="M 30.628906 6.28125 C 30.503906 6.28125 30.394531 6.328125 30.304688 6.414062 C 30.214844 6.503906 30.171875 6.613281 30.171875 6.738281 L 30.171875 13.261719 C 30.171875 13.386719 30.214844 13.496094 30.304688 13.585938 C 30.394531 13.675781 30.503906 13.71875 30.628906 13.71875 C 30.757812 13.71875 30.863281 13.675781 30.953125 13.585938 C 31.042969 13.496094 31.089844 13.386719 31.089844 13.261719 L 31.089844 6.742188 C 31.089844 6.613281 31.042969 6.503906 30.953125 6.414062 C 30.863281 6.324219 30.757812 6.28125 30.628906 6.28125 Z M 30.628906 6.28125 " fill-opacity="1" fill-rule="nonzero"/></g><path fill="#ffffff" d="M 32.265625 7.703125 C 32.140625 7.703125 32.03125 7.75 31.941406 7.839844 C 31.851562 7.929688 31.808594 8.035156 31.808594 8.164062 L 31.808594 11.835938 C 31.808594 11.964844 31.851562 12.070312 31.941406 12.160156 C 32.03125 12.25 32.140625 12.296875 32.265625 12.296875 C 32.394531 12.296875 32.5 12.25 32.589844 12.160156 C 32.679688 12.070312 32.726562 11.964844 32.726562 11.835938 L 32.726562 8.164062 C 32.726562 8.035156 32.679688 7.929688 32.589844 7.839844 C 32.5 7.75 32.394531 7.703125 32.265625 7.703125 Z M 32.265625 7.703125 " fill-opacity="1" fill-rule="nonzero"/><path fill="#ffffff" d="M 7.554688 9.539062 L 29.453125 9.539062 L 29.453125 10.464844 L 7.554688 10.464844 Z M 7.554688 9.539062 " fill-opacity="1" fill-rule="nonzero"/><g clip-path="url(#c4b7a0b24c)"><path fill="#ffffff" d="M 11.042969 29.667969 C 11.039062 29.667969 11.035156 29.667969 11.035156 29.667969 L 8.988281 29.667969 C 8.984375 29.667969 8.984375 29.667969 8.980469 29.667969 L 8.484375 29.667969 L 7.726562 30.792969 L 12.292969 30.792969 L 11.539062 29.667969 Z M 11.042969 29.667969 " fill-opacity="1" fill-rule="nonzero"/></g><path fill="#ffffff" d="M 26.332031 11.183594 L 26.332031 28.949219 L 27.65625 28.949219 L 27.65625 11.183594 Z M 27.351562 21.582031 C 27.351562 21.679688 27.320312 21.765625 27.25 21.835938 C 27.179688 21.90625 27.09375 21.941406 26.992188 21.941406 C 26.894531 21.941406 26.808594 21.90625 26.738281 21.835938 C 26.667969 21.765625 26.632812 21.679688 26.632812 21.582031 L 26.632812 21.515625 C 26.632812 21.414062 26.667969 21.332031 26.738281 21.261719 C 26.808594 21.191406 26.894531 21.15625 26.992188 21.15625 C 27.09375 21.15625 27.179688 21.191406 27.25 21.261719 C 27.320312 21.332031 27.351562 21.414062 27.351562 21.515625 Z M 27.351562 18.910156 C 27.351562 19.007812 27.320312 19.09375 27.25 19.164062 C 27.179688 19.234375 27.09375 19.269531 26.992188 19.269531 C 26.894531 19.269531 26.808594 19.234375 26.738281 19.164062 C 26.667969 19.09375 26.632812 19.007812 26.632812 18.910156 L 26.632812 18.839844 C 26.632812 18.742188 26.667969 18.65625 26.738281 18.585938 C 26.808594 18.515625 26.894531 18.480469 26.992188 18.480469 C 27.09375 18.480469 27.179688 18.515625 27.25 18.585938 C 27.320312 18.65625 27.351562 18.742188 27.351562 18.839844 Z M 27.351562 16.347656 C 27.351562 16.445312 27.320312 16.53125 27.25 16.601562 C 27.179688 16.671875 27.09375 16.707031 26.992188 16.707031 C 26.894531 16.707031 26.808594 16.671875 26.738281 16.601562 C 26.667969 16.53125 26.632812 16.445312 26.632812 16.347656 L 26.632812 16.28125 C 26.632812 16.179688 26.667969 16.097656 26.738281 16.027344 C 26.808594 15.957031 26.894531 15.921875 26.992188 15.921875 C 27.09375 15.921875 27.179688 15.957031 27.25 16.027344 C 27.320312 16.097656 27.351562 16.179688 27.351562 16.28125 Z M 27.351562 13.675781 C 27.351562 13.773438 27.320312 13.859375 27.25 13.929688 C 27.179688 14 27.09375 14.035156 26.992188 14.035156 C 26.894531 14.035156 26.808594 14 26.738281 13.929688 C 26.667969 13.859375 26.632812 13.773438 26.632812 13.675781 L 26.632812 13.609375 C 26.632812 13.507812 26.667969 13.421875 26.738281 13.351562 C 26.808594 13.285156 26.894531 13.25 26.992188 13.25 C 27.09375 13.25 27.179688 13.285156 27.25 13.351562 C 27.320312 13.421875 27.351562 13.507812 27.351562 13.609375 Z M 27.351562 13.675781 " fill-opacity="1" fill-rule="nonzero"/><g clip-path="url(#8964694bdc)"><path fill="#ffffff" d="M 6.375 6.28125 C 6.25 6.28125 6.140625 6.328125 6.050781 6.414062 C 5.960938 6.503906 5.917969 6.613281 5.917969 6.738281 L 5.917969 13.261719 C 5.917969 13.386719 5.960938 13.496094 6.050781 13.585938 C 6.140625 13.675781 6.25 13.71875 6.375 13.71875 C 6.503906 13.71875 6.609375 13.675781 6.699219 13.585938 C 6.789062 13.496094 6.835938 13.386719 6.835938 13.261719 L 6.835938 6.742188 C 6.835938 6.613281 6.789062 6.503906 6.699219 6.414062 C 6.609375 6.324219 6.503906 6.28125 6.375 6.28125 Z M 6.375 6.28125 " fill-opacity="1" fill-rule="nonzero"/></g><g clip-path="url(#dcd242de73)"><path fill="#ffffff" d="M 20 26.660156 L 20 30.792969 L 21.199219 30.792969 L 21.199219 24.308594 L 20 24.308594 Z M 20 26.660156 " fill-opacity="1" fill-rule="nonzero"/></g><path fill="#ffffff" d="M 22.113281 21.722656 L 14.890625 21.722656 C 14.710938 21.722656 14.535156 21.757812 14.371094 21.824219 C 14.203125 21.894531 14.054688 21.992188 13.929688 22.121094 C 13.800781 22.25 13.703125 22.394531 13.632812 22.5625 C 13.566406 22.730469 13.53125 22.902344 13.53125 23.082031 L 13.53125 23.589844 L 23.472656 23.589844 L 23.472656 23.082031 C 23.472656 22.902344 23.441406 22.726562 23.371094 22.5625 C 23.300781 22.394531 23.203125 22.246094 23.074219 22.121094 C 22.949219 21.992188 22.800781 21.894531 22.632812 21.824219 C 22.46875 21.757812 22.292969 21.722656 22.113281 21.722656 Z M 22.113281 21.722656 " fill-opacity="1" fill-rule="nonzero"/><path fill="#ffffff" d="M 17.542969 24.308594 L 19.28125 24.308594 L 19.28125 26.300781 L 17.542969 26.300781 Z M 17.542969 24.308594 " fill-opacity="1" fill-rule="nonzero"/><g clip-path="url(#49f71df424)"><path fill="#ffffff" d="M 15.628906 30.792969 L 16.824219 30.792969 L 16.824219 24.308594 L 15.628906 24.308594 Z M 15.628906 30.792969 " fill-opacity="1" fill-rule="nonzero"/></g><path fill="#ffffff" d="M 17.542969 27.019531 L 19.28125 27.019531 L 19.28125 27.78125 L 17.542969 27.78125 Z M 17.542969 27.019531 " fill-opacity="1" fill-rule="nonzero"/></svg>