<svg xmlns="http://www.w3.org/2000/svg" xmlns:xlink="http://www.w3.org/1999/xlink" width="50" zoomAndPan="magnify" viewBox="0 0 37.5 37.499999" height="50" preserveAspectRatio="xMidYMid meet" version="1.0"><defs><clipPath id="a4b7be8397"><path d="M 0 0 L 37.007812 0 L 37.007812 37.007812 L 0 37.007812 Z M 0 0 " clip-rule="nonzero"/></clipPath><clipPath id="92403e833f"><path d="M 10.5625 4.632812 L 26.105469 4.632812 L 26.105469 32.019531 L 10.5625 32.019531 Z M 10.5625 4.632812 " clip-rule="nonzero"/></clipPath></defs><g clip-path="url(#a4b7be8397)"><path fill="#ffffff" d="M 0 0 L 37.007812 0 L 37.007812 37.007812 L 0 37.007812 Z M 0 0 " fill-opacity="1" fill-rule="nonzero"/><path fill="#000000" d="M 0 0 L 37.007812 0 L 37.007812 37.007812 L 0 37.007812 Z M 0 0 " fill-opacity="1" fill-rule="nonzero"/></g><g clip-path="url(#92403e833f)"><path fill="#ffffff" d="M 10.894531 9.332031 C 10.894531 9.332031 11.589844 9.867188 11.847656 10.109375 C 11.847656 10.109375 12.957031 11.289062 14.445312 11.039062 C 14.46875 11.210938 14.601562 12.066406 15.261719 12.679688 C 15.261719 12.679688 15.699219 13.132812 15.832031 13.363281 C 15.832031 13.363281 17.070312 15.179688 17.128906 15.300781 C 17.128906 15.300781 17.566406 16.054688 17.367188 16.546875 C 17.367188 16.546875 16.914062 17.203125 16.972656 18.050781 C 16.972656 18.050781 17.015625 18.875 17.214844 19.390625 C 17.214844 19.390625 17.421875 20.074219 17.285156 20.527344 C 17.285156 20.527344 16.820312 21.566406 16.882812 22.535156 C 16.882812 22.535156 16.941406 23.753906 16.871094 24.253906 L 15.46875 25.003906 C 15.46875 25.003906 14.390625 25.488281 14.347656 26.449219 C 14.125 26.738281 12.894531 28.328125 12.226562 28.882812 C 12.074219 28.949219 11.9375 28.960938 11.9375 28.960938 C 11.550781 29.003906 11.449219 29.164062 11.449219 29.164062 C 11.191406 29.507812 11.484375 29.941406 11.484375 29.941406 C 11.671875 30.332031 11.777344 30.90625 11.777344 30.90625 L 11.890625 31.59375 C 12.035156 32.101562 12.460938 32.113281 12.601562 32.101562 C 12.621094 32.152344 12.609375 32.207031 12.640625 32.253906 C 12.707031 32.363281 12.890625 32.28125 12.902344 32.179688 C 12.996094 32.230469 13.171875 32.230469 13.210938 32.140625 C 13.257812 32.164062 13.304688 32.179688 13.363281 32.167969 C 13.414062 32.15625 13.46875 32.128906 13.484375 32.082031 C 13.628906 32.140625 13.734375 31.941406 13.648438 31.851562 C 13.753906 31.839844 13.847656 31.75 13.839844 31.640625 C 13.832031 31.472656 13.632812 31.527344 13.507812 31.503906 C 13.386719 31.480469 13.246094 31.449219 13.136719 31.378906 C 13.085938 31.34375 13.039062 31.292969 13.011719 31.238281 C 12.996094 31.210938 12.992188 31.179688 12.988281 31.148438 C 13.082031 30.929688 13.351562 30.25 13.414062 30.09375 C 13.582031 29.878906 13.789062 29.457031 13.789062 29.457031 C 14.039062 29.03125 15.253906 28.105469 15.253906 28.105469 C 16.382812 27.289062 16.984375 26.613281 16.984375 26.613281 C 17.398438 26.191406 18.1875 25.667969 18.1875 25.667969 C 18.925781 25.230469 19.132812 24.523438 19.175781 24.339844 C 19.386719 24.097656 19.570312 23.695312 19.675781 23.441406 C 19.75 23.710938 19.851562 24.261719 19.570312 24.554688 C 19.570312 24.554688 18.65625 25.617188 18.667969 26.410156 C 18.667969 26.410156 18.726562 27.660156 18.613281 28.222656 C 18.613281 28.222656 18.3125 29.726562 18.074219 30.28125 C 18.074219 30.28125 17.546875 31.308594 18.09375 31.421875 C 18.09375 31.421875 18.582031 31.542969 19.121094 31.523438 C 19.121094 31.523438 19.578125 31.5 20.078125 31.632812 C 20.078125 31.632812 20.792969 31.859375 21.160156 31.667969 C 21.375 31.753906 21.707031 31.746094 21.882812 31.664062 C 21.992188 31.613281 22.09375 31.503906 22.039062 31.378906 C 22.015625 31.3125 21.921875 31.289062 21.832031 31.273438 C 21.773438 31.132812 21.449219 31.054688 21.332031 31.015625 C 21.132812 30.949219 20.921875 30.964844 20.714844 30.933594 C 20.007812 30.617188 19.722656 29.96875 19.722656 29.96875 C 19.554688 29.3125 20.425781 27.589844 20.425781 27.589844 C 20.96875 26.621094 21.121094 25.628906 21.144531 25.464844 C 21.394531 25.183594 21.671875 24.597656 21.671875 24.597656 C 21.921875 24.191406 21.933594 23.589844 21.933594 23.589844 C 21.933594 23.488281 21.941406 23.128906 21.945312 22.945312 C 22.257812 22.210938 22.320312 20.714844 22.320312 20.714844 C 22.445312 19.234375 21.574219 17.71875 21.574219 17.71875 C 21.375 17.261719 20.910156 16 20.769531 15.621094 C 20.789062 15.507812 20.785156 15.378906 20.785156 15.273438 C 20.785156 14.875 20.601562 14.429688 20.824219 14.074219 C 20.941406 13.882812 20.949219 13.730469 20.9375 13.5 C 20.933594 13.402344 20.914062 13.277344 20.910156 13.152344 C 21.09375 12.542969 21.746094 11.546875 22.070312 11.074219 C 22.398438 11.058594 22.941406 11.085938 22.941406 11.085938 C 24.492188 11.027344 25.34375 10.296875 25.554688 10.09375 C 26.382812 9.804688 26.417969 9.132812 26.417969 9.132812 C 26.4375 8.929688 26.300781 8.832031 26.300781 8.832031 C 26.210938 8.75 26.167969 8.578125 26.167969 8.578125 C 25.816406 7.550781 24.945312 6.855469 24.945312 6.855469 C 24.433594 6.40625 24.003906 5.714844 24.003906 5.714844 C 23.519531 5.0625 22.28125 5.6875 22.28125 5.6875 C 21.933594 5.859375 22.03125 6.070312 22.03125 6.070312 L 22.085938 6.652344 C 22.140625 6.941406 22.445312 6.953125 22.539062 6.949219 C 22.613281 7.039062 22.699219 7.082031 22.855469 7.078125 C 22.984375 7.070312 23.136719 7.023438 23.117188 6.867188 C 23.132812 6.859375 23.144531 6.855469 23.15625 6.847656 C 23.191406 6.824219 23.203125 6.789062 23.21875 6.757812 C 23.324219 6.769531 23.476562 6.699219 23.503906 6.609375 C 23.601562 6.730469 23.820312 7.046875 23.886719 7.441406 C 23.886719 7.441406 23.941406 8.132812 23.984375 8.472656 C 23.699219 8.300781 23.15625 8.144531 22.59375 8.925781 C 22.289062 8.816406 21.238281 8.519531 20.324219 9.191406 C 20.085938 9.078125 19.613281 8.976562 19.414062 8.9375 C 19.460938 8.757812 19.515625 8.515625 19.542969 8.371094 C 19.660156 8.261719 19.742188 8.101562 19.796875 7.953125 C 19.804688 7.980469 19.8125 8.007812 19.820312 8.039062 C 19.863281 8.195312 19.84375 8.355469 19.84375 8.351562 C 19.84375 8.351562 19.902344 8.207031 19.902344 8.03125 C 19.902344 7.976562 19.898438 7.921875 19.886719 7.871094 C 19.921875 7.894531 19.964844 7.917969 20.011719 7.929688 C 20.03125 7.9375 20.050781 7.941406 20.070312 7.945312 C 20.03125 8.03125 19.980469 8.085938 19.984375 8.085938 C 19.976562 8.085938 20.050781 8.035156 20.109375 7.945312 C 20.191406 7.941406 20.25 7.894531 20.246094 7.894531 C 20.246094 7.894531 20.195312 7.914062 20.132812 7.902344 C 20.15625 7.851562 20.179688 7.796875 20.183594 7.730469 C 20.195312 7.652344 20.191406 7.574219 20.183594 7.503906 C 20.195312 7.519531 20.203125 7.539062 20.210938 7.554688 C 20.265625 7.671875 20.273438 7.804688 20.273438 7.800781 C 20.273438 7.800781 20.308594 7.675781 20.289062 7.535156 C 20.28125 7.453125 20.25 7.367188 20.21875 7.308594 C 20.238281 7.285156 20.257812 7.257812 20.273438 7.230469 C 20.28125 7.25 20.289062 7.265625 20.296875 7.285156 C 20.363281 7.449219 20.324219 7.628906 20.328125 7.628906 C 20.324219 7.628906 20.40625 7.464844 20.375 7.265625 C 20.367188 7.207031 20.347656 7.15625 20.328125 7.105469 C 20.390625 6.890625 20.355469 6.621094 20.355469 6.40625 C 20.355469 5.957031 20.273438 5.636719 19.972656 5.289062 C 19.851562 5.148438 19.675781 5.039062 19.503906 4.964844 C 19.398438 4.917969 19.167969 4.835938 19.023438 4.878906 C 18.855469 4.839844 18.605469 4.84375 18.488281 4.859375 C 18.277344 4.890625 18.039062 5.003906 17.855469 5.105469 C 17.4375 5.328125 17.183594 5.695312 17.230469 6.164062 C 17.234375 6.210938 17.242188 6.257812 17.257812 6.304688 C 17.171875 6.378906 17.039062 6.527344 17.023438 6.707031 C 17.007812 6.808594 17.011719 6.90625 17.019531 6.980469 C 16.929688 7.019531 16.828125 6.976562 16.816406 6.96875 C 16.828125 6.980469 16.914062 7.050781 17.027344 7.035156 C 17.039062 7.101562 17.054688 7.144531 17.050781 7.144531 C 17.050781 7.144531 17.046875 7.097656 17.050781 7.03125 C 17.078125 7.023438 17.105469 7.011719 17.132812 6.996094 C 17.113281 7.039062 17.09375 7.089844 17.082031 7.140625 C 17.035156 7.332031 17.082031 7.507812 17.078125 7.507812 C 17.082031 7.507812 17.078125 7.359375 17.136719 7.214844 C 17.136719 7.289062 17.136719 7.363281 17.140625 7.4375 C 17.128906 7.464844 17.117188 7.496094 17.097656 7.523438 C 17.027344 7.664062 16.851562 7.632812 16.855469 7.628906 C 16.84375 7.628906 16.992188 7.699219 17.121094 7.605469 C 17.113281 7.636719 17.105469 7.671875 17.089844 7.707031 C 17.050781 7.859375 16.886719 7.894531 16.882812 7.882812 C 16.875 7.894531 17.054688 7.90625 17.152344 7.757812 C 17.152344 7.769531 17.152344 7.78125 17.152344 7.792969 C 17.152344 7.851562 17.160156 7.910156 17.171875 7.960938 C 17.109375 8 17.035156 8 17.023438 8.003906 C 17.035156 8.003906 17.101562 8.027344 17.183594 8.007812 C 17.210938 8.109375 17.25 8.179688 17.246094 8.179688 C 17.246094 8.179688 17.226562 8.101562 17.21875 7.992188 C 17.25 7.980469 17.277344 7.964844 17.304688 7.9375 C 17.320312 7.921875 17.335938 7.902344 17.351562 7.882812 C 17.375 7.902344 17.402344 7.921875 17.433594 7.933594 L 17.410156 8.191406 C 17.28125 8.351562 16.980469 8.679688 16.507812 8.894531 C 16.355469 8.78125 15.617188 8.296875 14.648438 8.65625 C 14.476562 8.449219 13.835938 7.832031 12.890625 8.347656 C 12.976562 8.042969 13.023438 7.585938 13.023438 7.585938 L 13.34375 6.269531 C 13.429688 5.964844 13.605469 5.800781 13.722656 5.71875 C 13.769531 5.753906 13.835938 5.753906 13.898438 5.753906 C 13.875 5.859375 13.878906 5.960938 13.988281 6.015625 C 14.027344 6.039062 14.070312 6.042969 14.109375 6.042969 C 14.144531 6.183594 14.246094 6.335938 14.375 6.378906 C 14.457031 6.40625 14.566406 6.394531 14.652344 6.371094 C 14.664062 6.367188 14.683594 6.359375 14.703125 6.351562 C 14.792969 6.363281 15.003906 6.382812 15.101562 6.285156 C 15.101562 6.285156 15.320312 6.183594 15.316406 5.761719 L 15.320312 5.316406 C 15.320312 5.316406 15.375 5.117188 15.058594 4.996094 C 15.058594 4.996094 14.070312 4.632812 13.550781 4.738281 C 13.550781 4.738281 13.03125 4.757812 12.90625 5.113281 C 12.90625 5.113281 12.714844 5.585938 12.3125 6.015625 C 12.3125 6.015625 11.632812 6.734375 11.433594 7.199219 L 10.851562 8.476562 C 10.851562 8.476562 10.5625 9.050781 10.894531 9.332031 Z M 19.96875 7.785156 C 20.03125 7.75 20.0625 7.675781 20.085938 7.59375 C 20.09375 7.636719 20.101562 7.679688 20.105469 7.726562 C 20.113281 7.785156 20.101562 7.839844 20.089844 7.886719 C 20.074219 7.878906 20.058594 7.871094 20.042969 7.859375 C 20.011719 7.835938 19.988281 7.808594 19.96875 7.785156 Z M 17.21875 7.921875 C 17.21875 7.882812 17.222656 7.839844 17.230469 7.796875 C 17.234375 7.785156 17.238281 7.773438 17.242188 7.761719 C 17.25 7.777344 17.261719 7.792969 17.273438 7.808594 C 17.265625 7.835938 17.257812 7.863281 17.242188 7.886719 C 17.238281 7.902344 17.226562 7.914062 17.21875 7.921875 Z M 17.101562 6.726562 C 17.113281 6.695312 17.125 6.664062 17.140625 6.640625 C 17.128906 6.71875 17.128906 6.789062 17.148438 6.851562 C 17.132812 6.878906 17.109375 6.90625 17.089844 6.929688 C 17.078125 6.945312 17.066406 6.953125 17.054688 6.960938 C 17.058594 6.890625 17.074219 6.808594 17.101562 6.726562 Z M 17.101562 6.726562 " fill-opacity="1" fill-rule="nonzero"/></g></svg>