<svg xmlns="http://www.w3.org/2000/svg" xmlns:xlink="http://www.w3.org/1999/xlink" width="50" zoomAndPan="magnify" viewBox="0 0 37.5 37.499999" height="50" preserveAspectRatio="xMidYMid meet" version="1.0"><defs><clipPath id="b73726c20f"><path d="M 0 0 L 37.007812 0 L 37.007812 37.007812 L 0 37.007812 Z M 0 0 " clip-rule="nonzero"/></clipPath><clipPath id="b3341f7f87"><path d="M 1.847656 7 L 35.152344 7 L 35.152344 29.933594 L 1.847656 29.933594 Z M 1.847656 7 " clip-rule="nonzero"/></clipPath></defs><g clip-path="url(#b73726c20f)"><path fill="#ffffff" d="M 0 0 L 37.007812 0 L 37.007812 37.007812 L 0 37.007812 Z M 0 0 " fill-opacity="1" fill-rule="nonzero"/><path fill="#000000" d="M 0 0 L 37.007812 0 L 37.007812 37.007812 L 0 37.007812 Z M 0 0 " fill-opacity="1" fill-rule="nonzero"/></g><g clip-path="url(#b3341f7f87)"><path fill="#ffffff" d="M 14.898438 19.855469 C 14.8125 19.84375 14.742188 19.828125 14.667969 19.820312 C 14.601562 19.820312 14.511719 19.871094 14.476562 19.84375 C 14.285156 19.695312 14.09375 19.792969 13.910156 19.835938 C 12.519531 20.109375 11.179688 20.582031 9.839844 21.070312 C 8.765625 21.464844 7.734375 21.972656 6.738281 22.566406 C 6.683594 22.601562 6.625 22.644531 6.546875 22.703125 C 6.648438 22.925781 6.738281 23.144531 6.832031 23.359375 C 7.148438 24.113281 7.464844 24.859375 7.785156 25.617188 C 7.796875 25.652344 7.8125 25.6875 7.820312 25.722656 C 8.039062 26.359375 7.742188 26.886719 7.128906 26.984375 C 6.894531 27.019531 6.796875 26.972656 6.578125 26.703125 C 6.363281 26.816406 6.152344 26.921875 5.941406 27.035156 C 5.671875 27.175781 5.449219 27.148438 5.277344 26.835938 C 5.179688 26.902344 5.085938 26.964844 4.988281 27.019531 C 4.644531 27.226562 4.402344 27.175781 4.164062 26.835938 C 3.859375 26.40625 3.605469 25.949219 3.40625 25.445312 C 3.34375 25.292969 3.273438 25.144531 3.210938 24.988281 C 3.011719 25.023438 2.855469 25.242188 2.652344 25.128906 C 2.5625 25.078125 2.476562 24.980469 2.425781 24.882812 C 2.292969 24.605469 2.378906 24.410156 2.757812 24.128906 C 2.738281 24.054688 2.722656 23.980469 2.695312 23.910156 C 2.519531 23.507812 2.34375 23.105469 2.164062 22.703125 C 2.101562 22.554688 2.03125 22.398438 1.980469 22.242188 C 1.863281 21.855469 1.945312 21.59375 2.265625 21.382812 C 2.382812 21.296875 2.519531 21.234375 2.660156 21.15625 C 2.632812 21.078125 2.601562 21 2.582031 20.921875 C 2.488281 20.632812 2.539062 20.414062 2.757812 20.222656 C 2.855469 20.140625 2.96875 20.070312 3.082031 19.996094 C 3.195312 19.925781 3.308594 19.871094 3.421875 19.808594 C 3.429688 19.6875 3.429688 19.574219 3.449219 19.46875 C 3.535156 19.058594 4.242188 18.671875 4.59375 18.847656 C 4.683594 18.898438 4.769531 18.988281 4.839844 19.082031 C 4.898438 19.152344 4.9375 19.234375 4.976562 19.3125 C 5.378906 20.144531 5.773438 20.980469 6.175781 21.8125 C 6.1875 21.847656 6.210938 21.875 6.238281 21.925781 C 6.300781 21.898438 6.359375 21.867188 6.414062 21.832031 C 6.851562 21.59375 7.28125 21.324219 7.734375 21.113281 C 9.054688 20.5 10.375 19.871094 11.757812 19.433594 C 12.464844 19.214844 13.167969 19.015625 13.898438 18.953125 C 14.085938 18.933594 14.242188 18.882812 14.285156 18.640625 C 14.300781 18.558594 14.355469 18.472656 14.40625 18.394531 C 14.6875 17.921875 14.757812 17.394531 14.707031 16.84375 C 14.671875 16.449219 14.625 16.039062 14.757812 15.679688 C 14.925781 15.203125 14.933594 14.71875 14.992188 14.238281 C 15.027344 13.960938 15.089844 13.695312 15.214844 13.449219 C 15.28125 13.320312 15.292969 13.152344 15.308594 13.003906 C 15.351562 12.210938 15.542969 11.511719 16.203125 11.074219 C 16.496094 10.886719 16.796875 10.714844 17.082031 10.503906 C 17.234375 10.390625 17.390625 10.242188 17.496094 10.066406 C 17.671875 9.785156 17.609375 9.480469 17.347656 9.253906 C 17.277344 9.191406 17.234375 9.132812 17.234375 9.027344 C 17.242188 8.886719 17.242188 8.746094 17.234375 8.613281 C 17.222656 8.441406 17.261719 8.316406 17.425781 8.292969 C 17.441406 8.148438 17.445312 8.019531 17.476562 7.890625 C 17.609375 7.277344 18.046875 6.988281 18.511719 7.015625 C 19.132812 7.050781 19.4375 7.449219 19.515625 8.039062 C 19.535156 8.175781 19.507812 8.324219 19.675781 8.367188 C 19.699219 8.371094 19.726562 8.441406 19.726562 8.484375 C 19.734375 8.683594 19.734375 8.878906 19.726562 9.070312 C 19.71875 9.132812 19.675781 9.199219 19.628906 9.242188 C 19.3125 9.542969 19.289062 9.9375 19.59375 10.257812 C 19.71875 10.390625 19.875 10.496094 20.023438 10.597656 C 20.277344 10.765625 20.539062 10.925781 20.792969 11.089844 C 21.285156 11.40625 21.511719 11.914062 21.613281 12.5 C 21.640625 12.691406 21.625 12.890625 21.648438 13.082031 C 21.660156 13.1875 21.683594 13.304688 21.730469 13.398438 C 21.972656 13.851562 22.015625 14.34375 22.027344 14.851562 C 22.027344 14.957031 22.027344 15.078125 22.070312 15.175781 C 22.261719 15.65625 22.316406 16.164062 22.269531 16.679688 C 22.203125 17.328125 22.273438 17.945312 22.621094 18.496094 C 22.648438 18.535156 22.675781 18.59375 22.691406 18.640625 C 22.734375 18.839844 22.855469 18.925781 23.039062 18.9375 C 24.03125 19.03125 24.992188 19.328125 25.929688 19.671875 C 27.351562 20.195312 28.726562 20.835938 30.082031 21.53125 C 30.300781 21.640625 30.511719 21.785156 30.722656 21.917969 C 30.753906 21.882812 30.773438 21.867188 30.78125 21.847656 C 31.167969 21.042969 31.558594 20.230469 31.945312 19.425781 C 32.015625 19.285156 32.078125 19.144531 32.171875 19.023438 C 32.3125 18.820312 32.511719 18.75 32.734375 18.820312 C 32.835938 18.847656 32.933594 18.890625 33.027344 18.933594 C 33.363281 19.085938 33.605469 19.328125 33.535156 19.792969 C 33.625 19.84375 33.710938 19.886719 33.789062 19.933594 C 33.921875 20.011719 34.0625 20.089844 34.183594 20.1875 C 34.445312 20.398438 34.492188 20.617188 34.378906 20.949219 C 34.359375 21.007812 34.339844 21.070312 34.308594 21.148438 C 34.421875 21.210938 34.527344 21.261719 34.628906 21.324219 C 35.035156 21.570312 35.136719 21.867188 34.960938 22.347656 C 34.902344 22.496094 34.832031 22.628906 34.769531 22.773438 C 34.597656 23.160156 34.429688 23.546875 34.269531 23.9375 C 34.246094 23.992188 34.230469 24.054688 34.21875 24.128906 C 34.296875 24.183594 34.367188 24.234375 34.429688 24.289062 C 34.71875 24.523438 34.597656 24.972656 34.351562 25.109375 C 34.273438 25.152344 34.15625 25.136719 34.0625 25.117188 C 33.964844 25.09375 33.878906 25.03125 33.765625 24.972656 C 33.695312 25.144531 33.632812 25.304688 33.554688 25.453125 C 33.335938 25.878906 33.132812 26.308594 32.882812 26.703125 C 32.582031 27.203125 32.320312 27.246094 31.855469 26.929688 C 31.804688 26.894531 31.753906 26.867188 31.699219 26.832031 C 31.664062 26.871094 31.636719 26.902344 31.605469 26.9375 C 31.488281 27.097656 31.332031 27.15625 31.15625 27.070312 C 30.984375 26.992188 30.808594 26.90625 30.640625 26.824219 C 30.554688 26.78125 30.476562 26.726562 30.386719 26.675781 C 30.246094 26.894531 30.066406 27.027344 29.820312 26.964844 C 29.515625 26.886719 29.261719 26.726562 29.113281 26.421875 C 29.003906 26.1875 29.050781 25.941406 29.144531 25.714844 C 29.410156 25.050781 29.679688 24.386719 29.953125 23.726562 C 30.101562 23.378906 30.265625 23.039062 30.429688 22.679688 C 30.320312 22.609375 30.238281 22.554688 30.152344 22.503906 C 29.042969 21.847656 27.886719 21.316406 26.6875 20.886719 C 25.5 20.464844 24.300781 20.070312 23.074219 19.8125 C 22.882812 19.773438 22.683594 19.671875 22.488281 19.820312 C 22.453125 19.847656 22.375 19.808594 22.316406 19.808594 C 22.238281 19.808594 22.164062 19.808594 22.078125 19.808594 C 22.121094 20.070312 22.164062 20.289062 22.183594 20.507812 C 22.234375 20.921875 22.28125 21.339844 22.332031 21.75 C 22.339844 21.820312 22.351562 21.917969 22.394531 21.945312 C 22.628906 22.109375 22.671875 22.382812 22.726562 22.644531 C 22.753906 22.777344 22.796875 22.886719 22.875 22.992188 C 22.960938 23.117188 23.03125 23.25 23.101562 23.394531 C 23.566406 24.304688 23.898438 25.277344 24.175781 26.28125 C 24.265625 26.625 24.398438 26.964844 24.535156 27.289062 C 24.753906 27.820312 25.089844 28.242188 25.527344 28.574219 C 25.726562 28.722656 25.925781 28.863281 26.121094 29.003906 C 26.199219 29.0625 26.277344 29.117188 26.347656 29.1875 C 26.515625 29.359375 26.515625 29.503906 26.332031 29.648438 C 26.03125 29.871094 25.683594 30.015625 25.324219 29.941406 C 24.90625 29.867188 24.5 29.730469 24.097656 29.605469 C 23.820312 29.519531 23.660156 29.300781 23.625 28.976562 C 23.601562 28.785156 23.589844 28.589844 23.558594 28.398438 C 23.496094 27.933594 23.292969 27.542969 23.058594 27.15625 C 22.636719 26.457031 22.21875 25.757812 21.800781 25.050781 C 21.542969 24.613281 21.335938 24.148438 21.214844 23.632812 C 21.195312 23.542969 21.140625 23.441406 21.066406 23.394531 C 20.863281 23.238281 20.730469 23.03125 20.617188 22.792969 C 20.480469 22.503906 20.363281 22.207031 20.234375 21.910156 C 20.078125 21.550781 19.875 21.234375 19.605469 20.972656 C 19.296875 20.660156 19.042969 20.308594 18.871094 19.878906 C 18.816406 19.738281 18.71875 19.617188 18.617188 19.496094 C 18.542969 19.398438 18.429688 19.398438 18.351562 19.496094 C 18.257812 19.617188 18.160156 19.738281 18.105469 19.878906 C 17.933594 20.289062 17.703125 20.632812 17.40625 20.929688 C 17.085938 21.238281 16.859375 21.621094 16.683594 22.039062 C 16.578125 22.292969 16.472656 22.546875 16.359375 22.792969 C 16.253906 23.027344 16.105469 23.230469 15.910156 23.386719 C 15.84375 23.433594 15.789062 23.519531 15.765625 23.605469 C 15.640625 24.203125 15.371094 24.726562 15.070312 25.234375 C 14.671875 25.898438 14.277344 26.5625 13.875 27.21875 C 13.601562 27.671875 13.402344 28.144531 13.402344 28.695312 C 13.402344 28.808594 13.382812 28.914062 13.351562 29.027344 C 13.304688 29.28125 13.183594 29.484375 12.949219 29.5625 C 12.511719 29.703125 12.074219 29.851562 11.625 29.9375 C 11.285156 30 10.953125 29.859375 10.664062 29.648438 C 10.464844 29.503906 10.460938 29.335938 10.636719 29.167969 C 10.734375 29.066406 10.855469 28.996094 10.96875 28.90625 C 11.242188 28.6875 11.539062 28.496094 11.792969 28.25 C 12.34375 27.71875 12.613281 27 12.808594 26.25 C 13.070312 25.261719 13.394531 24.3125 13.855469 23.414062 C 13.945312 23.238281 14.058594 23.066406 14.152344 22.890625 C 14.191406 22.8125 14.222656 22.730469 14.242188 22.636719 C 14.3125 22.371094 14.347656 22.09375 14.589844 21.917969 C 14.628906 21.890625 14.636719 21.789062 14.652344 21.71875 C 14.714844 21.210938 14.777344 20.703125 14.84375 20.203125 C 14.84375 20.132812 14.871094 20.011719 14.898438 19.855469 Z M 22.796875 19.292969 C 22.917969 19.3125 23.015625 19.339844 23.113281 19.355469 C 23.847656 19.445312 24.570312 19.617188 25.28125 19.847656 C 26.625 20.292969 27.914062 20.902344 29.179688 21.558594 C 29.636719 21.789062 30.101562 22.023438 30.554688 22.257812 C 30.675781 22.144531 30.675781 22.058594 30.546875 21.980469 C 30.371094 21.875 30.195312 21.75 30.011719 21.65625 C 28.648438 20.957031 27.265625 20.316406 25.839844 19.785156 C 24.871094 19.425781 23.882812 19.152344 22.867188 19.042969 C 22.847656 19.042969 22.824219 19.058594 22.789062 19.066406 C 22.796875 19.136719 22.796875 19.199219 22.796875 19.292969 Z M 6.394531 22.257812 C 6.464844 22.222656 6.527344 22.191406 6.589844 22.164062 C 7.621094 21.65625 8.652344 21.148438 9.683594 20.648438 C 10.648438 20.179688 11.644531 19.8125 12.675781 19.566406 C 13.140625 19.460938 13.613281 19.398438 14.082031 19.304688 C 14.101562 19.300781 14.121094 19.285156 14.152344 19.269531 C 14.152344 19.199219 14.152344 19.128906 14.152344 19.050781 C 14.101562 19.050781 14.074219 19.050781 14.039062 19.050781 C 13.148438 19.144531 12.28125 19.375 11.425781 19.667969 C 10.128906 20.105469 8.886719 20.710938 7.628906 21.289062 C 7.210938 21.480469 6.824219 21.734375 6.421875 21.960938 C 6.316406 22.03125 6.253906 22.109375 6.394531 22.257812 Z M 15.703125 17.773438 C 15.710938 17.773438 15.71875 17.78125 15.726562 17.78125 C 15.902344 17.546875 16.070312 17.308594 16.238281 17.070312 C 16.261719 17.039062 16.261719 16.996094 16.269531 16.960938 C 16.332031 16.703125 16.382812 16.441406 16.453125 16.1875 C 16.59375 15.714844 16.65625 15.226562 16.628906 14.726562 C 16.621094 14.632812 16.585938 14.546875 16.566406 14.457031 C 16.542969 14.457031 16.523438 14.457031 16.5 14.457031 C 16.480469 14.546875 16.453125 14.648438 16.429688 14.738281 C 16.339844 15.140625 16.210938 15.542969 16.15625 15.953125 C 16.085938 16.503906 15.980469 17.035156 15.765625 17.535156 C 15.746094 17.617188 15.726562 17.695312 15.703125 17.773438 Z M 21.230469 17.78125 C 21.238281 17.773438 21.246094 17.773438 21.257812 17.765625 C 21.214844 17.660156 21.175781 17.554688 21.140625 17.441406 C 21.039062 17.109375 20.90625 16.777344 20.863281 16.433594 C 20.785156 15.785156 20.59375 15.167969 20.46875 14.535156 C 20.460938 14.507812 20.433594 14.476562 20.382812 14.414062 C 20.355469 14.542969 20.320312 14.625 20.320312 14.710938 C 20.285156 15.199219 20.347656 15.671875 20.480469 16.136719 C 20.558594 16.410156 20.617188 16.6875 20.6875 16.96875 C 20.695312 17.003906 20.699219 17.046875 20.714844 17.074219 C 20.890625 17.316406 21.0625 17.546875 21.230469 17.78125 Z M 2.511719 24.820312 C 2.667969 24.726562 2.816406 24.640625 2.976562 24.550781 C 2.914062 24.4375 2.863281 24.359375 2.820312 24.28125 C 2.496094 24.402344 2.441406 24.5 2.511719 24.820312 Z M 33.972656 24.550781 C 34.148438 24.648438 34.296875 24.734375 34.445312 24.820312 C 34.507812 24.5 34.453125 24.402344 34.125 24.28125 C 34.085938 24.351562 34.035156 24.4375 33.972656 24.550781 Z M 33.972656 24.550781 " fill-opacity="1" fill-rule="nonzero"/></g></svg>