<svg xmlns="http://www.w3.org/2000/svg" xmlns:xlink="http://www.w3.org/1999/xlink" width="50" zoomAndPan="magnify" viewBox="0 0 37.5 37.499999" height="50" preserveAspectRatio="xMidYMid meet" version="1.0"><defs><clipPath id="4a61f3a95c"><path d="M 5.582031 1 L 31.488281 1 L 31.488281 36 L 5.582031 36 Z M 5.582031 1 " clip-rule="nonzero"/></clipPath></defs><g clip-path="url(#4a61f3a95c)"><path fill="#ffffff" d="M 29.902344 31.007812 C 27.734375 34.726562 23.335938 36.152344 18.691406 35.300781 C 13.898438 34.457031 9.539062 32.28125 5.589844 29.734375 C 12.320312 33.542969 24.878906 38.164062 28.421875 29.480469 C 28.75 28.703125 28.933594 27.953125 28.992188 27.238281 C 28.746094 28.105469 28.335938 28.933594 27.835938 29.710938 C 25.875 32.90625 22.0625 34.210938 18.105469 33.589844 C 14.019531 32.980469 10.347656 31.234375 7.035156 29.160156 C 12.695312 32.242188 23.328125 35.875 26.609375 28.449219 C 26.914062 27.78125 27.09375 27.144531 27.164062 26.539062 C 26.925781 27.277344 26.550781 27.988281 26.101562 28.65625 C 24.328125 31.402344 21.027344 32.589844 17.652344 32.152344 C 14.167969 31.726562 11.070312 30.328125 8.289062 28.644531 C 13.054688 31.128906 22.0625 33.976562 25.085938 27.617188 C 25.367188 27.042969 25.535156 26.5 25.613281 25.984375 C 25.390625 26.617188 25.046875 27.226562 24.644531 27.800781 C 23.046875 30.167969 20.183594 31.242188 17.304688 30.945312 C 14.332031 30.660156 11.714844 29.542969 9.378906 28.179688 C 13.394531 30.179688 21.035156 32.394531 23.804688 26.941406 C 24.058594 26.453125 24.21875 25.992188 24.300781 25.554688 C 24.089844 26.09375 23.78125 26.613281 23.421875 27.109375 C 21.984375 29.144531 19.5 30.121094 17.042969 29.929688 C 14.5 29.753906 12.289062 28.867188 10.328125 27.761719 C 13.710938 29.367188 20.195312 31.074219 22.722656 26.402344 C 22.957031 25.980469 23.109375 25.585938 23.1875 25.214844 C 22.992188 25.675781 22.714844 26.125 22.390625 26.550781 C 21.101562 28.304688 18.945312 29.1875 16.84375 29.078125 C 14.671875 28.984375 12.800781 28.28125 11.148438 27.390625 C 14.003906 28.675781 19.515625 29.976562 21.8125 25.964844 C 22.316406 25.105469 22.425781 24.375 22.253906 23.753906 C 15.539062 21.78125 6.691406 18.191406 5.808594 11.378906 C 5.601562 9.609375 6.089844 7.917969 6.867188 6.371094 C 8.710938 2.511719 12.992188 0.746094 17.71875 1.222656 C 22.589844 1.679688 27.144531 3.492188 31.320312 5.707031 C 24.246094 2.460938 11.273438 -1.125 8.484375 7.765625 C 8.222656 8.566406 8.105469 9.324219 8.109375 10.035156 C 8.28125 9.15625 8.621094 8.304688 9.050781 7.492188 C 10.734375 4.167969 14.4375 2.574219 18.453125 2.875 C 22.59375 3.15625 26.425781 4.597656 29.925781 6.390625 C 23.988281 3.78125 13.023438 1.019531 10.386719 8.648438 C 10.144531 9.332031 10.019531 9.980469 10 10.585938 C 10.175781 9.832031 10.488281 9.101562 10.878906 8.402344 C 12.414062 5.535156 15.617188 4.097656 19.03125 4.265625 C 22.558594 4.410156 25.78125 5.550781 28.714844 7 C 23.726562 4.914062 14.457031 2.804688 11.988281 9.355469 C 11.757812 9.941406 11.632812 10.496094 11.601562 11.011719 C 11.769531 10.367188 12.058594 9.738281 12.414062 9.132812 C 13.804688 6.664062 16.578125 5.367188 19.484375 5.433594 C 22.488281 5.480469 25.203125 6.378906 27.664062 7.546875 C 23.46875 5.882812 15.625 4.292969 13.328125 9.917969 C 13.128906 10.402344 13.007812 10.851562 12.960938 11.273438 C 12.964844 11.273438 12.96875 11.273438 12.972656 11.277344 C 13.136719 10.746094 13.390625 10.222656 13.699219 9.722656 C 14.957031 7.589844 17.363281 6.425781 19.839844 6.417969 C 22.398438 6.390625 24.6875 7.097656 26.75 8.035156 C 23.222656 6.710938 16.578125 5.535156 14.457031 10.371094 C 14.261719 10.804688 14.144531 11.210938 14.097656 11.585938 C 14.25 11.113281 14.492188 10.644531 14.777344 10.195312 C 15.914062 8.351562 18 7.308594 20.109375 7.25 C 22.292969 7.167969 24.226562 7.71875 25.957031 8.472656 C 22.988281 7.425781 17.359375 6.566406 15.40625 10.730469 C 15.191406 11.183594 15.074219 11.59375 15.039062 11.964844 C 15.183594 12.015625 15.328125 12.070312 15.472656 12.121094 C 22.035156 14.585938 31.101562 18.941406 31.390625 26.078125 C 31.441406 27.867188 30.8125 29.519531 29.902344 31.007812 Z M 29.902344 31.007812 " fill-opacity="1" fill-rule="nonzero"/></g></svg>