<svg xmlns="http://www.w3.org/2000/svg" xmlns:xlink="http://www.w3.org/1999/xlink" width="50" zoomAndPan="magnify" viewBox="0 0 37.5 37.499999" height="50" preserveAspectRatio="xMidYMid meet" version="1.0"><defs><clipPath id="5fda85627c"><path d="M 0 0 L 37.007812 0 L 37.007812 37.007812 L 0 37.007812 Z M 0 0 " clip-rule="nonzero"/></clipPath><clipPath id="7db2c3a071"><path d="M 24 9 L 36.726562 9 L 36.726562 19 L 24 19 Z M 24 9 " clip-rule="nonzero"/></clipPath><clipPath id="788419ab10"><path d="M 11 13 L 26 13 L 26 28.046875 L 11 28.046875 Z M 11 13 " clip-rule="nonzero"/></clipPath><clipPath id="6b3d9519bf"><path d="M 0.460938 9 L 13 9 L 13 19 L 0.460938 19 Z M 0.460938 9 " clip-rule="nonzero"/></clipPath><clipPath id="180cfb070b"><path d="M 16 8.804688 L 21 8.804688 L 21 14 L 16 14 Z M 16 8.804688 " clip-rule="nonzero"/></clipPath></defs><g clip-path="url(#5fda85627c)"><path fill="#ffffff" d="M 0 0 L 37.007812 0 L 37.007812 37.007812 L 0 37.007812 Z M 0 0 " fill-opacity="1" fill-rule="nonzero"/><path fill="#000000" d="M 0 0 L 37.007812 0 L 37.007812 37.007812 L 0 37.007812 Z M 0 0 " fill-opacity="1" fill-rule="nonzero"/></g><g clip-path="url(#7db2c3a071)"><path fill="#ffffff" d="M 24.945312 14.433594 L 29.496094 14.433594 L 29.496094 18.023438 C 29.496094 18.265625 29.695312 18.464844 29.941406 18.464844 L 30.019531 18.464844 C 30.226562 18.464844 30.398438 18.320312 30.449219 18.128906 C 30.496094 18.320312 30.667969 18.464844 30.875 18.464844 L 30.957031 18.464844 C 31.167969 18.464844 31.347656 18.3125 31.390625 18.113281 C 31.429688 18.3125 31.609375 18.464844 31.824219 18.464844 L 31.902344 18.464844 C 32.144531 18.464844 32.34375 18.265625 32.34375 18.023438 L 32.34375 15.632812 L 33.101562 15.632812 L 33.101562 14.433594 L 36.511719 14.433594 L 36.511719 13.816406 L 33.101562 13.816406 L 33.101562 12.621094 L 32.34375 12.621094 L 32.34375 10.230469 C 32.34375 9.984375 32.144531 9.785156 31.902344 9.785156 L 31.824219 9.785156 C 31.609375 9.785156 31.429688 9.9375 31.390625 10.136719 C 31.347656 9.9375 31.167969 9.785156 30.957031 9.785156 L 30.875 9.785156 C 30.667969 9.785156 30.496094 9.929688 30.449219 10.121094 C 30.398438 9.929688 30.226562 9.785156 30.019531 9.785156 L 29.941406 9.785156 C 29.695312 9.785156 29.496094 9.984375 29.496094 10.230469 L 29.496094 13.816406 L 24.992188 13.816406 L 24.992188 14.113281 C 24.992188 14.222656 24.976562 14.332031 24.945312 14.433594 Z M 24.945312 14.433594 " fill-opacity="1" fill-rule="nonzero"/></g><g clip-path="url(#788419ab10)"><path fill="#ffffff" d="M 14.246094 14.433594 L 16.277344 14.433594 C 16.210938 14.441406 16.144531 14.453125 16.082031 14.472656 C 15.3125 14.640625 14.652344 15.21875 14.117188 15.90625 L 14.058594 14.800781 C 13.851562 15.074219 13.519531 15.253906 13.148438 15.253906 C 12.804688 15.253906 12.496094 15.101562 12.285156 14.859375 L 12.511719 19.1875 C 12.511719 19.214844 12.515625 19.238281 12.519531 19.265625 C 12.519531 19.269531 12.519531 19.273438 12.519531 19.273438 C 12.523438 19.289062 12.527344 19.304688 12.527344 19.320312 C 12.550781 19.417969 12.585938 19.511719 12.636719 19.59375 C 12.636719 19.597656 12.636719 19.601562 12.640625 19.601562 C 12.652344 19.625 12.667969 19.644531 12.679688 19.664062 C 12.6875 19.675781 12.695312 19.683594 12.703125 19.691406 C 12.714844 19.703125 12.722656 19.71875 12.734375 19.730469 C 12.742188 19.742188 12.753906 19.75 12.765625 19.761719 C 12.773438 19.769531 12.78125 19.78125 12.789062 19.789062 C 12.800781 19.800781 12.816406 19.808594 12.828125 19.820312 C 12.835938 19.828125 12.847656 19.835938 12.855469 19.84375 C 12.867188 19.851562 12.878906 19.859375 12.890625 19.867188 C 12.902344 19.875 12.914062 19.886719 12.925781 19.890625 C 12.9375 19.898438 12.949219 19.90625 12.960938 19.910156 C 12.972656 19.921875 12.988281 19.929688 13.003906 19.933594 C 13.011719 19.941406 13.023438 19.945312 13.035156 19.949219 C 13.050781 19.957031 13.070312 19.964844 13.085938 19.972656 C 13.089844 19.972656 13.09375 19.976562 13.097656 19.976562 C 13.105469 19.976562 13.109375 19.980469 13.117188 19.980469 C 13.132812 19.988281 13.144531 19.992188 13.160156 19.996094 C 13.171875 20 13.183594 20 13.199219 20.003906 C 13.210938 20.007812 13.222656 20.011719 13.238281 20.011719 C 13.253906 20.015625 13.269531 20.019531 13.289062 20.019531 C 13.296875 20.019531 13.304688 20.023438 13.316406 20.023438 C 13.34375 20.027344 13.371094 20.027344 13.398438 20.027344 C 13.398438 20.027344 13.398438 20.027344 13.402344 20.027344 C 13.414062 20.027344 13.429688 20.027344 13.441406 20.027344 C 13.472656 20.023438 13.5 20.023438 13.527344 20.019531 C 13.53125 20.015625 13.53125 20.015625 13.53125 20.015625 C 13.574219 20.011719 13.613281 20 13.652344 19.988281 C 13.660156 19.988281 13.667969 19.984375 13.675781 19.980469 C 13.75 19.957031 13.824219 19.921875 13.890625 19.875 C 13.898438 19.871094 13.90625 19.867188 13.910156 19.863281 C 13.941406 19.839844 13.972656 19.816406 14 19.789062 C 14.007812 19.785156 14.011719 19.777344 14.019531 19.773438 C 14.042969 19.75 14.066406 19.722656 14.085938 19.695312 C 14.09375 19.691406 14.097656 19.683594 14.101562 19.675781 C 14.128906 19.644531 14.148438 19.613281 14.167969 19.578125 C 14.171875 19.570312 14.175781 19.5625 14.179688 19.554688 C 14.199219 19.515625 14.21875 19.480469 14.234375 19.4375 C 14.503906 18.679688 14.992188 17.707031 15.5 17.023438 L 15.5 21 L 13.132812 20.386719 C 12.671875 20.269531 12.183594 20.398438 11.84375 20.730469 C 11.503906 21.0625 11.363281 21.546875 11.46875 22.011719 L 12.660156 27.152344 C 12.804688 27.777344 13.363281 28.203125 13.980469 28.203125 C 14.082031 28.203125 14.1875 28.191406 14.289062 28.167969 C 15.019531 27.996094 15.476562 27.269531 15.304688 26.539062 L 14.621094 23.578125 L 17.019531 24.195312 C 17.601562 24.34375 18.191406 24.09375 18.5 23.613281 C 18.808594 24.09375 19.398438 24.34375 19.980469 24.195312 L 22.378906 23.578125 L 21.695312 26.539062 C 21.523438 27.269531 21.980469 27.996094 22.710938 28.167969 C 22.8125 28.191406 22.917969 28.203125 23.019531 28.203125 C 23.636719 28.203125 24.195312 27.777344 24.339844 27.148438 L 25.53125 22.011719 C 25.636719 21.546875 25.496094 21.0625 25.15625 20.730469 C 24.816406 20.398438 24.328125 20.269531 23.867188 20.386719 L 21.5 21 L 21.5 17.023438 C 22.007812 17.707031 22.496094 18.679688 22.765625 19.4375 C 22.78125 19.480469 22.800781 19.519531 22.820312 19.554688 C 22.824219 19.5625 22.828125 19.570312 22.832031 19.578125 C 22.851562 19.613281 22.871094 19.644531 22.898438 19.675781 C 22.902344 19.683594 22.90625 19.691406 22.914062 19.695312 C 22.933594 19.722656 22.957031 19.75 22.980469 19.773438 C 22.988281 19.777344 22.992188 19.785156 22.996094 19.789062 C 23.027344 19.816406 23.058594 19.839844 23.089844 19.863281 C 23.09375 19.867188 23.101562 19.871094 23.109375 19.875 C 23.175781 19.921875 23.25 19.957031 23.328125 19.984375 C 23.332031 19.984375 23.339844 19.988281 23.347656 19.988281 C 23.386719 20 23.425781 20.011719 23.46875 20.019531 C 23.46875 20.019531 23.46875 20.019531 23.472656 20.019531 C 23.5 20.023438 23.527344 20.023438 23.558594 20.027344 C 23.570312 20.027344 23.585938 20.027344 23.597656 20.027344 C 23.601562 20.027344 23.601562 20.027344 23.601562 20.027344 C 23.628906 20.027344 23.65625 20.027344 23.683594 20.023438 C 23.695312 20.023438 23.703125 20.023438 23.710938 20.019531 C 23.730469 20.019531 23.746094 20.015625 23.761719 20.011719 C 23.777344 20.011719 23.789062 20.007812 23.800781 20.003906 C 23.8125 20 23.828125 20 23.839844 19.996094 C 23.855469 19.992188 23.867188 19.988281 23.882812 19.980469 C 23.886719 19.980469 23.894531 19.980469 23.902344 19.976562 C 23.90625 19.976562 23.910156 19.972656 23.914062 19.972656 C 23.929688 19.964844 23.949219 19.957031 23.964844 19.949219 C 23.976562 19.945312 23.988281 19.941406 23.996094 19.933594 C 24.011719 19.929688 24.023438 19.921875 24.039062 19.914062 C 24.050781 19.90625 24.0625 19.898438 24.074219 19.890625 C 24.085938 19.886719 24.097656 19.878906 24.105469 19.871094 C 24.121094 19.859375 24.132812 19.851562 24.144531 19.84375 C 24.152344 19.835938 24.160156 19.828125 24.167969 19.824219 C 24.183594 19.8125 24.195312 19.800781 24.210938 19.789062 C 24.21875 19.78125 24.222656 19.773438 24.230469 19.765625 C 24.242188 19.753906 24.257812 19.742188 24.269531 19.726562 C 24.277344 19.71875 24.285156 19.707031 24.292969 19.699219 C 24.300781 19.6875 24.3125 19.675781 24.320312 19.664062 C 24.332031 19.648438 24.34375 19.628906 24.351562 19.613281 C 24.355469 19.605469 24.363281 19.601562 24.363281 19.59375 C 24.40625 19.527344 24.4375 19.453125 24.457031 19.378906 C 24.460938 19.371094 24.460938 19.367188 24.460938 19.359375 C 24.464844 19.351562 24.464844 19.34375 24.46875 19.335938 C 24.480469 19.285156 24.488281 19.234375 24.488281 19.1875 L 24.714844 14.859375 C 24.503906 15.101562 24.195312 15.253906 23.851562 15.253906 C 23.480469 15.253906 23.148438 15.074219 22.941406 14.800781 L 22.882812 15.90625 C 22.347656 15.21875 21.6875 14.644531 20.917969 14.472656 C 20.855469 14.453125 20.789062 14.441406 20.722656 14.433594 L 22.753906 14.433594 C 22.726562 14.332031 22.707031 14.222656 22.707031 14.113281 L 22.707031 13.816406 L 19.785156 13.816406 C 19.398438 14.015625 18.960938 14.128906 18.5 14.128906 C 18.039062 14.128906 17.601562 14.015625 17.214844 13.816406 L 14.292969 13.816406 L 14.292969 14.113281 C 14.292969 14.222656 14.273438 14.332031 14.246094 14.433594 Z M 14.246094 14.433594 " fill-opacity="1" fill-rule="nonzero"/></g><g clip-path="url(#6b3d9519bf)"><path fill="#ffffff" d="M 6.125 9.785156 L 6.046875 9.785156 C 5.832031 9.785156 5.652344 9.9375 5.613281 10.140625 C 5.570312 9.9375 5.390625 9.785156 5.175781 9.785156 L 5.097656 9.785156 C 4.855469 9.785156 4.65625 9.984375 4.65625 10.230469 L 4.65625 12.621094 L 3.898438 12.621094 L 3.898438 13.816406 L 0.488281 13.816406 L 0.488281 14.433594 L 3.898438 14.433594 L 3.898438 15.632812 L 4.65625 15.632812 L 4.65625 18.023438 C 4.65625 18.265625 4.855469 18.464844 5.097656 18.464844 L 5.175781 18.464844 C 5.390625 18.464844 5.570312 18.3125 5.613281 18.113281 C 5.652344 18.3125 5.832031 18.464844 6.046875 18.464844 L 6.125 18.464844 C 6.332031 18.464844 6.503906 18.320312 6.554688 18.128906 C 6.601562 18.320312 6.777344 18.464844 6.980469 18.464844 L 7.0625 18.464844 C 7.304688 18.464844 7.503906 18.265625 7.503906 18.023438 L 7.503906 14.433594 L 12.054688 14.433594 C 12.023438 14.332031 12.007812 14.222656 12.007812 14.113281 L 12.007812 13.816406 L 7.503906 13.816406 L 7.503906 10.230469 C 7.503906 9.984375 7.304688 9.785156 7.0625 9.785156 L 6.980469 9.785156 C 6.777344 9.785156 6.601562 9.929688 6.554688 10.121094 C 6.503906 9.929688 6.332031 9.785156 6.125 9.785156 Z M 6.125 9.785156 " fill-opacity="1" fill-rule="nonzero"/></g><g clip-path="url(#180cfb070b)"><path fill="#ffffff" d="M 20.996094 11.300781 C 20.996094 11.628906 20.929688 11.949219 20.804688 12.253906 C 20.679688 12.558594 20.5 12.832031 20.265625 13.0625 C 20.03125 13.296875 19.761719 13.476562 19.453125 13.605469 C 19.148438 13.730469 18.832031 13.792969 18.5 13.792969 C 18.167969 13.792969 17.851562 13.730469 17.546875 13.605469 C 17.238281 13.476562 16.96875 13.296875 16.734375 13.0625 C 16.5 12.832031 16.320312 12.558594 16.195312 12.253906 C 16.070312 11.949219 16.003906 11.628906 16.003906 11.300781 C 16.003906 10.96875 16.070312 10.652344 16.195312 10.34375 C 16.320312 10.039062 16.5 9.769531 16.734375 9.535156 C 16.96875 9.300781 17.238281 9.121094 17.546875 8.996094 C 17.851562 8.867188 18.167969 8.804688 18.5 8.804688 C 18.832031 8.804688 19.148438 8.867188 19.453125 8.996094 C 19.761719 9.121094 20.03125 9.300781 20.265625 9.535156 C 20.5 9.769531 20.679688 10.039062 20.804688 10.34375 C 20.929688 10.652344 20.996094 10.96875 20.996094 11.300781 Z M 20.996094 11.300781 " fill-opacity="1" fill-rule="nonzero"/></g><path fill="#ffffff" d="M 12.261719 14.113281 C 12.261719 14.601562 12.660156 15 13.148438 15 C 13.640625 15 14.035156 14.601562 14.035156 14.113281 L 14.035156 13.804688 C 14.035156 13.316406 12.261719 13.316406 12.261719 13.804688 Z M 12.261719 14.113281 " fill-opacity="1" fill-rule="nonzero"/><path fill="#ffffff" d="M 22.964844 14.113281 C 22.964844 14.601562 23.359375 15 23.851562 15 C 24.339844 15 24.738281 14.601562 24.738281 14.113281 L 24.738281 13.804688 C 24.738281 13.316406 22.964844 13.316406 22.964844 13.804688 Z M 22.964844 14.113281 " fill-opacity="1" fill-rule="nonzero"/></svg>