<svg xmlns="http://www.w3.org/2000/svg" xmlns:xlink="http://www.w3.org/1999/xlink" width="210" zoomAndPan="magnify" viewBox="0 0 157.5 30.000001" height="40" preserveAspectRatio="xMidYMid meet" version="1.0"><defs><g/><clipPath id="a87569d7da"><path d="M 119.671875 1.660156 L 131.285156 1.660156 L 131.285156 13.273438 L 119.671875 13.273438 Z M 119.671875 1.660156 " clip-rule="nonzero"/></clipPath><clipPath id="884dc927dd"><path d="M 9.074219 4 L 24.316406 4 L 24.316406 25 L 9.074219 25 Z M 9.074219 4 " clip-rule="nonzero"/></clipPath></defs><g fill="#000000" fill-opacity="1"><g transform="translate(24.3629, 20.639006)"><g><path d="M 1.6875 -9.59375 L 1.6875 -13.15625 L 4.984375 -13.15625 L 4.984375 -9.59375 L 7 -9.59375 L 7 -7.0625 L 4.984375 -7.0625 L 4.984375 -4.015625 C 4.984375 -3.128906 5.234375 -2.6875 5.734375 -2.6875 C 5.859375 -2.6875 5.988281 -2.710938 6.125 -2.765625 C 6.257812 -2.816406 6.367188 -2.867188 6.453125 -2.921875 L 6.5625 -2.984375 L 7.375 -0.3125 C 6.664062 0.0820312 5.859375 0.28125 4.953125 0.28125 C 4.328125 0.28125 3.789062 0.171875 3.34375 -0.046875 C 2.894531 -0.265625 2.554688 -0.554688 2.328125 -0.921875 C 2.097656 -1.285156 1.929688 -1.671875 1.828125 -2.078125 C 1.734375 -2.484375 1.6875 -2.914062 1.6875 -3.375 L 1.6875 -7.0625 L 0.296875 -7.0625 L 0.296875 -9.59375 Z M 1.6875 -9.59375 "/></g></g></g><g fill="#000000" fill-opacity="1"><g transform="translate(30.810652, 20.639006)"><g><path d="M 1.78125 -1.1875 C 0.882812 -2.164062 0.4375 -3.363281 0.4375 -4.78125 C 0.4375 -6.207031 0.882812 -7.410156 1.78125 -8.390625 C 2.675781 -9.367188 3.8125 -9.859375 5.1875 -9.859375 C 6.457031 -9.859375 7.503906 -9.460938 8.328125 -8.671875 L 8.328125 -9.59375 L 11.640625 -9.59375 L 11.640625 0 L 8.375 0 L 8.375 -1.078125 L 8.328125 -1.078125 C 7.503906 -0.171875 6.457031 0.28125 5.1875 0.28125 C 3.8125 0.28125 2.675781 -0.207031 1.78125 -1.1875 Z M 4.578125 -6.40625 C 4.148438 -5.988281 3.9375 -5.445312 3.9375 -4.78125 C 3.9375 -4.125 4.140625 -3.585938 4.546875 -3.171875 C 4.960938 -2.753906 5.507812 -2.546875 6.1875 -2.546875 C 6.832031 -2.546875 7.363281 -2.753906 7.78125 -3.171875 C 8.195312 -3.597656 8.40625 -4.132812 8.40625 -4.78125 C 8.40625 -5.445312 8.191406 -5.988281 7.765625 -6.40625 C 7.335938 -6.832031 6.8125 -7.046875 6.1875 -7.046875 C 5.550781 -7.046875 5.015625 -6.832031 4.578125 -6.40625 Z M 4.578125 -6.40625 "/></g></g></g><g fill="#000000" fill-opacity="1"><g transform="translate(42.640975, 20.639006)"><g><path d="M 1.125 0 L 1.125 -9.59375 L 4.421875 -9.59375 L 4.421875 -8.203125 L 4.46875 -8.203125 C 4.488281 -8.253906 4.523438 -8.316406 4.578125 -8.390625 C 4.640625 -8.460938 4.765625 -8.59375 4.953125 -8.78125 C 5.140625 -8.96875 5.335938 -9.132812 5.546875 -9.28125 C 5.765625 -9.4375 6.039062 -9.570312 6.375 -9.6875 C 6.707031 -9.800781 7.050781 -9.859375 7.40625 -9.859375 C 7.757812 -9.859375 8.109375 -9.804688 8.453125 -9.703125 C 8.804688 -9.609375 9.066406 -9.515625 9.234375 -9.421875 L 9.5 -9.265625 L 8.109375 -6.46875 C 7.703125 -6.8125 7.128906 -6.984375 6.390625 -6.984375 C 5.992188 -6.984375 5.648438 -6.894531 5.359375 -6.71875 C 5.078125 -6.550781 4.875 -6.34375 4.75 -6.09375 C 4.632812 -5.84375 4.550781 -5.628906 4.5 -5.453125 C 4.445312 -5.273438 4.421875 -5.140625 4.421875 -5.046875 L 4.421875 0 Z M 1.125 0 "/></g></g></g><g fill="#000000" fill-opacity="1"><g transform="translate(51.013737, 20.639006)"><g><path d="M 1.6875 -9.59375 L 1.6875 -13.15625 L 4.984375 -13.15625 L 4.984375 -9.59375 L 7 -9.59375 L 7 -7.0625 L 4.984375 -7.0625 L 4.984375 -4.015625 C 4.984375 -3.128906 5.234375 -2.6875 5.734375 -2.6875 C 5.859375 -2.6875 5.988281 -2.710938 6.125 -2.765625 C 6.257812 -2.816406 6.367188 -2.867188 6.453125 -2.921875 L 6.5625 -2.984375 L 7.375 -0.3125 C 6.664062 0.0820312 5.859375 0.28125 4.953125 0.28125 C 4.328125 0.28125 3.789062 0.171875 3.34375 -0.046875 C 2.894531 -0.265625 2.554688 -0.554688 2.328125 -0.921875 C 2.097656 -1.285156 1.929688 -1.671875 1.828125 -2.078125 C 1.734375 -2.484375 1.6875 -2.914062 1.6875 -3.375 L 1.6875 -7.0625 L 0.296875 -7.0625 L 0.296875 -9.59375 Z M 1.6875 -9.59375 "/></g></g></g><g fill="#000000" fill-opacity="1"><g transform="translate(57.461487, 20.639006)"><g/></g></g><g fill="#000000" fill-opacity="1"><g transform="translate(61.629121, 20.639006)"><g><path d="M 6.796875 -15.703125 C 7.628906 -15.703125 8.445312 -15.578125 9.25 -15.328125 C 10.050781 -15.085938 10.644531 -14.847656 11.03125 -14.609375 L 11.59375 -14.234375 L 10.171875 -11.4375 C 10.054688 -11.507812 9.898438 -11.601562 9.703125 -11.71875 C 9.503906 -11.84375 9.128906 -12.003906 8.578125 -12.203125 C 8.023438 -12.398438 7.515625 -12.5 7.046875 -12.5 C 6.460938 -12.5 6.007812 -12.375 5.6875 -12.125 C 5.375 -11.875 5.21875 -11.539062 5.21875 -11.125 C 5.21875 -10.90625 5.289062 -10.707031 5.4375 -10.53125 C 5.582031 -10.351562 5.835938 -10.160156 6.203125 -9.953125 C 6.566406 -9.742188 6.882812 -9.578125 7.15625 -9.453125 C 7.425781 -9.328125 7.847656 -9.140625 8.421875 -8.890625 C 9.421875 -8.472656 10.269531 -7.898438 10.96875 -7.171875 C 11.675781 -6.441406 12.03125 -5.613281 12.03125 -4.6875 C 12.03125 -3.800781 11.867188 -3.03125 11.546875 -2.375 C 11.234375 -1.71875 10.800781 -1.203125 10.25 -0.828125 C 9.695312 -0.453125 9.082031 -0.175781 8.40625 0 C 7.738281 0.1875 7.007812 0.28125 6.21875 0.28125 C 5.550781 0.28125 4.890625 0.210938 4.234375 0.078125 C 3.585938 -0.0546875 3.046875 -0.226562 2.609375 -0.4375 C 2.179688 -0.644531 1.789062 -0.847656 1.4375 -1.046875 C 1.09375 -1.242188 0.835938 -1.410156 0.671875 -1.546875 L 0.4375 -1.75 L 2.1875 -4.703125 C 2.332031 -4.578125 2.535156 -4.414062 2.796875 -4.21875 C 3.066406 -4.03125 3.53125 -3.773438 4.1875 -3.453125 C 4.851562 -3.128906 5.445312 -2.96875 5.96875 -2.96875 C 7.445312 -2.96875 8.1875 -3.472656 8.1875 -4.484375 C 8.1875 -4.691406 8.132812 -4.882812 8.03125 -5.0625 C 7.925781 -5.25 7.738281 -5.429688 7.46875 -5.609375 C 7.195312 -5.796875 6.957031 -5.941406 6.75 -6.046875 C 6.550781 -6.148438 6.21875 -6.3125 5.75 -6.53125 C 5.28125 -6.75 4.929688 -6.914062 4.703125 -7.03125 C 3.773438 -7.488281 3.054688 -8.0625 2.546875 -8.75 C 2.035156 -9.445312 1.78125 -10.191406 1.78125 -10.984375 C 1.78125 -12.367188 2.289062 -13.5 3.3125 -14.375 C 4.332031 -15.257812 5.492188 -15.703125 6.796875 -15.703125 Z M 6.796875 -15.703125 "/></g></g></g><g fill="#000000" fill-opacity="1"><g transform="translate(73.253861, 20.639006)"><g><path d="M 1.6875 -9.59375 L 1.6875 -13.15625 L 4.984375 -13.15625 L 4.984375 -9.59375 L 7 -9.59375 L 7 -7.0625 L 4.984375 -7.0625 L 4.984375 -4.015625 C 4.984375 -3.128906 5.234375 -2.6875 5.734375 -2.6875 C 5.859375 -2.6875 5.988281 -2.710938 6.125 -2.765625 C 6.257812 -2.816406 6.367188 -2.867188 6.453125 -2.921875 L 6.5625 -2.984375 L 7.375 -0.3125 C 6.664062 0.0820312 5.859375 0.28125 4.953125 0.28125 C 4.328125 0.28125 3.789062 0.171875 3.34375 -0.046875 C 2.894531 -0.265625 2.554688 -0.554688 2.328125 -0.921875 C 2.097656 -1.285156 1.929688 -1.671875 1.828125 -2.078125 C 1.734375 -2.484375 1.6875 -2.914062 1.6875 -3.375 L 1.6875 -7.0625 L 0.296875 -7.0625 L 0.296875 -9.59375 Z M 1.6875 -9.59375 "/></g></g></g><g fill="#000000" fill-opacity="1"><g transform="translate(79.701611, 20.639006)"><g><path d="M 1.125 0 L 1.125 -9.59375 L 4.421875 -9.59375 L 4.421875 -8.203125 L 4.46875 -8.203125 C 4.488281 -8.253906 4.523438 -8.316406 4.578125 -8.390625 C 4.640625 -8.460938 4.765625 -8.59375 4.953125 -8.78125 C 5.140625 -8.96875 5.335938 -9.132812 5.546875 -9.28125 C 5.765625 -9.4375 6.039062 -9.570312 6.375 -9.6875 C 6.707031 -9.800781 7.050781 -9.859375 7.40625 -9.859375 C 7.757812 -9.859375 8.109375 -9.804688 8.453125 -9.703125 C 8.804688 -9.609375 9.066406 -9.515625 9.234375 -9.421875 L 9.5 -9.265625 L 8.109375 -6.46875 C 7.703125 -6.8125 7.128906 -6.984375 6.390625 -6.984375 C 5.992188 -6.984375 5.648438 -6.894531 5.359375 -6.71875 C 5.078125 -6.550781 4.875 -6.34375 4.75 -6.09375 C 4.632812 -5.84375 4.550781 -5.628906 4.5 -5.453125 C 4.445312 -5.273438 4.421875 -5.140625 4.421875 -5.046875 L 4.421875 0 Z M 1.125 0 "/></g></g></g><g fill="#000000" fill-opacity="1"><g transform="translate(88.074373, 20.639006)"><g><path d="M 10.390625 -9.59375 L 5.640625 -2.515625 L 10.015625 -2.515625 L 10.015625 0 L 0.09375 0 L 4.84375 -7.0625 L 0.875 -7.0625 L 0.875 -9.59375 Z M 10.390625 -9.59375 "/></g></g></g><g fill="#000000" fill-opacity="1"><g transform="translate(97.624576, 20.639006)"><g><path d="M 10.8125 -4.328125 L 3.875 -4.328125 C 3.875 -3.660156 4.085938 -3.164062 4.515625 -2.84375 C 4.953125 -2.519531 5.425781 -2.359375 5.9375 -2.359375 C 6.476562 -2.359375 6.90625 -2.425781 7.21875 -2.5625 C 7.53125 -2.707031 7.882812 -2.992188 8.28125 -3.421875 L 10.671875 -2.21875 C 9.671875 -0.550781 8.015625 0.28125 5.703125 0.28125 C 4.253906 0.28125 3.015625 -0.210938 1.984375 -1.203125 C 0.953125 -2.191406 0.4375 -3.382812 0.4375 -4.78125 C 0.4375 -6.175781 0.953125 -7.367188 1.984375 -8.359375 C 3.015625 -9.359375 4.253906 -9.859375 5.703125 -9.859375 C 7.222656 -9.859375 8.457031 -9.421875 9.40625 -8.546875 C 10.363281 -7.671875 10.84375 -6.414062 10.84375 -4.78125 C 10.84375 -4.5625 10.832031 -4.410156 10.8125 -4.328125 Z M 3.96875 -6.171875 L 7.609375 -6.171875 C 7.535156 -6.671875 7.335938 -7.050781 7.015625 -7.3125 C 6.703125 -7.582031 6.296875 -7.71875 5.796875 -7.71875 C 5.242188 -7.71875 4.804688 -7.570312 4.484375 -7.28125 C 4.160156 -7 3.988281 -6.628906 3.96875 -6.171875 Z M 3.96875 -6.171875 "/></g></g></g><g fill="#000000" fill-opacity="1"><g transform="translate(107.959737, 20.639006)"><g><path d="M 0.6875 2.359375 L 3.40625 1.03125 C 3.90625 1.851562 4.769531 2.265625 6 2.265625 C 6.570312 2.265625 7.101562 2.078125 7.59375 1.703125 C 8.082031 1.335938 8.328125 0.773438 8.328125 0.015625 L 8.328125 -0.6875 C 7.742188 -0.0390625 6.695312 0.28125 5.1875 0.28125 C 3.8125 0.28125 2.675781 -0.207031 1.78125 -1.1875 C 0.882812 -2.164062 0.4375 -3.363281 0.4375 -4.78125 C 0.4375 -6.207031 0.882812 -7.410156 1.78125 -8.390625 C 2.675781 -9.367188 3.8125 -9.859375 5.1875 -9.859375 C 6.425781 -9.859375 7.457031 -9.484375 8.28125 -8.734375 L 8.328125 -8.734375 L 8.328125 -9.59375 L 11.640625 -9.59375 L 11.640625 0.265625 C 11.640625 1.816406 11.125 3.015625 10.09375 3.859375 C 9.0625 4.710938 7.695312 5.140625 6 5.140625 C 3.257812 5.140625 1.488281 4.210938 0.6875 2.359375 Z M 4.578125 -6.40625 C 4.148438 -5.988281 3.9375 -5.445312 3.9375 -4.78125 C 3.9375 -4.125 4.140625 -3.585938 4.546875 -3.171875 C 4.960938 -2.753906 5.507812 -2.546875 6.1875 -2.546875 C 6.832031 -2.546875 7.363281 -2.753906 7.78125 -3.171875 C 8.195312 -3.597656 8.40625 -4.132812 8.40625 -4.78125 C 8.40625 -5.445312 8.191406 -5.988281 7.765625 -6.40625 C 7.335938 -6.832031 6.8125 -7.046875 6.1875 -7.046875 C 5.550781 -7.046875 5.015625 -6.832031 4.578125 -6.40625 Z M 4.578125 -6.40625 "/></g></g></g><g fill="#000000" fill-opacity="1"><g transform="translate(119.790058, 20.639006)"><g><path d="M 2.03125 -1.140625 C 0.96875 -2.085938 0.4375 -3.300781 0.4375 -4.78125 C 0.4375 -6.257812 0.988281 -7.472656 2.09375 -8.421875 C 3.195312 -9.378906 4.566406 -9.859375 6.203125 -9.859375 C 7.804688 -9.859375 9.160156 -9.378906 10.265625 -8.421875 C 11.367188 -7.460938 11.921875 -6.25 11.921875 -4.78125 C 11.921875 -3.3125 11.378906 -2.097656 10.296875 -1.140625 C 9.222656 -0.191406 7.859375 0.28125 6.203125 0.28125 C 4.484375 0.28125 3.09375 -0.191406 2.03125 -1.140625 Z M 4.578125 -6.40625 C 4.148438 -5.988281 3.9375 -5.445312 3.9375 -4.78125 C 3.9375 -4.125 4.140625 -3.585938 4.546875 -3.171875 C 4.960938 -2.753906 5.507812 -2.546875 6.1875 -2.546875 C 6.832031 -2.546875 7.363281 -2.753906 7.78125 -3.171875 C 8.195312 -3.597656 8.40625 -4.132812 8.40625 -4.78125 C 8.40625 -5.445312 8.191406 -5.988281 7.765625 -6.40625 C 7.335938 -6.832031 6.8125 -7.046875 6.1875 -7.046875 C 5.550781 -7.046875 5.015625 -6.832031 4.578125 -6.40625 Z M 4.578125 -6.40625 "/></g></g></g><g fill="#000000" fill-opacity="1"><g transform="translate(131.209205, 20.639006)"><g><path d="M 1.125 0 L 1.125 -9.59375 L 4.421875 -9.59375 L 4.421875 -8.578125 L 4.46875 -8.578125 C 5.320312 -9.429688 6.238281 -9.859375 7.21875 -9.859375 C 7.914062 -9.859375 8.566406 -9.710938 9.171875 -9.421875 C 9.785156 -9.140625 10.25 -8.703125 10.5625 -8.109375 C 11.53125 -9.273438 12.585938 -9.859375 13.734375 -9.859375 C 14.753906 -9.859375 15.628906 -9.570312 16.359375 -9 C 17.097656 -8.425781 17.46875 -7.53125 17.46875 -6.3125 L 17.46875 0 L 14.171875 0 L 14.171875 -5.421875 C 14.171875 -5.929688 14.03125 -6.359375 13.75 -6.703125 C 13.46875 -7.046875 13.046875 -7.21875 12.484375 -7.21875 C 11.992188 -7.21875 11.617188 -7.066406 11.359375 -6.765625 C 11.109375 -6.472656 10.972656 -6.125 10.953125 -5.71875 L 10.953125 0 L 7.640625 0 L 7.640625 -5.421875 C 7.640625 -5.929688 7.5 -6.359375 7.21875 -6.703125 C 6.9375 -7.046875 6.519531 -7.21875 5.96875 -7.21875 C 5.445312 -7.21875 5.054688 -7.054688 4.796875 -6.734375 C 4.546875 -6.421875 4.421875 -6.046875 4.421875 -5.609375 L 4.421875 0 Z M 1.125 0 "/></g></g></g><g clip-path="url(#a87569d7da)"><path fill="#000000" d="M 124.617188 3.882812 C 124.753906 4.023438 124.890625 4.164062 125.027344 4.308594 C 125.042969 4.324219 125.0625 4.34375 125.066406 4.371094 C 125.070312 4.390625 125.0625 4.414062 125.0625 4.4375 C 125.066406 4.492188 125.105469 4.53125 125.140625 4.570312 C 125.1875 4.617188 125.230469 4.664062 125.277344 4.710938 C 125.308594 4.738281 125.335938 4.769531 125.347656 4.808594 C 125.363281 4.863281 125.34375 4.921875 125.351562 4.976562 C 125.355469 5.015625 125.375 5.050781 125.390625 5.085938 C 125.488281 5.289062 125.5625 5.5 125.609375 5.722656 C 125.617188 5.773438 125.628906 5.832031 125.597656 5.878906 C 125.574219 5.917969 125.523438 5.9375 125.488281 5.964844 C 125.449219 5.996094 125.417969 6.050781 125.445312 6.089844 C 125.457031 6.105469 125.476562 6.117188 125.496094 6.125 C 125.707031 6.210938 125.9375 6.242188 126.167969 6.269531 C 126.207031 6.277344 126.246094 6.28125 126.289062 6.277344 C 126.359375 6.269531 126.425781 6.230469 126.464844 6.171875 C 126.632812 5.933594 126.871094 5.75 127.15625 5.691406 C 127.515625 5.621094 127.898438 5.75 128.257812 5.667969 C 128.40625 5.484375 128.613281 5.324219 128.839844 5.246094 C 129 5.1875 129.175781 5.164062 129.332031 5.214844 C 129.371094 5.230469 129.410156 5.25 129.449219 5.25 C 129.5 5.253906 129.542969 5.230469 129.589844 5.210938 C 129.636719 5.1875 129.6875 5.167969 129.738281 5.144531 C 129.675781 4.839844 129.605469 4.503906 129.617188 4.195312 C 129.621094 4.113281 129.628906 4.035156 129.625 3.957031 C 129.621094 3.914062 129.617188 3.871094 129.609375 3.824219 C 129.582031 3.640625 129.535156 3.460938 129.46875 3.289062 C 129.394531 3.09375 129.300781 2.914062 129.203125 2.730469 C 129.179688 2.6875 129.105469 2.683594 129.058594 2.683594 C 129.011719 2.6875 128.964844 2.699219 128.914062 2.703125 C 128.726562 2.722656 128.554688 2.59375 128.367188 2.578125 C 128.28125 2.570312 128.195312 2.585938 128.113281 2.601562 C 128.097656 2.605469 128.078125 2.605469 128.058594 2.601562 C 128.039062 2.59375 128.027344 2.574219 128.015625 2.558594 C 127.996094 2.523438 127.976562 2.484375 127.960938 2.445312 C 127.953125 2.421875 127.945312 2.390625 127.960938 2.371094 C 127.96875 2.359375 127.980469 2.355469 127.988281 2.34375 C 128.007812 2.316406 127.988281 2.277344 127.996094 2.246094 C 128 2.222656 128.011719 2.207031 128.023438 2.191406 C 128.089844 2.089844 128.140625 1.980469 128.179688 1.867188 C 128.195312 1.820312 128.210938 1.769531 128.242188 1.734375 C 128.296875 1.675781 128.382812 1.660156 128.460938 1.660156 C 128.621094 1.664062 128.785156 1.722656 128.910156 1.828125 C 128.941406 1.855469 128.972656 1.886719 129.003906 1.914062 C 129.035156 1.941406 129.0625 1.960938 129.09375 1.984375 C 129.164062 2.039062 129.238281 2.089844 129.308594 2.144531 C 129.363281 2.183594 129.417969 2.226562 129.472656 2.265625 C 129.539062 2.316406 129.609375 2.367188 129.683594 2.410156 C 129.820312 2.484375 129.847656 2.644531 129.921875 2.773438 C 129.96875 2.855469 130.027344 2.910156 130.082031 2.984375 C 130.183594 3.121094 130.285156 3.261719 130.386719 3.398438 C 130.453125 3.492188 130.519531 3.585938 130.585938 3.679688 C 130.925781 4.1875 131.160156 4.765625 131.269531 5.367188 C 131.28125 5.441406 131.246094 5.511719 131.203125 5.570312 C 131.160156 5.632812 131.105469 5.683594 131.046875 5.734375 C 130.765625 5.992188 130.519531 6.285156 130.238281 6.542969 C 129.957031 6.800781 129.640625 7.035156 129.269531 7.136719 C 128.9375 7.230469 128.570312 7.222656 128.285156 7.414062 C 127.910156 7.664062 128.039062 8.261719 127.871094 8.675781 C 127.796875 8.855469 127.695312 9.027344 127.636719 9.214844 C 127.519531 9.582031 127.441406 9.960938 127.28125 10.308594 C 127.21875 10.4375 127.152344 10.5625 127.113281 10.699219 C 127.035156 10.96875 127.085938 11.253906 127.152344 11.523438 C 127.222656 11.792969 127.3125 12.058594 127.316406 12.335938 C 127.324219 12.660156 127.496094 12.960938 127.585938 13.273438 L 123.316406 13.273438 C 123.390625 13.046875 123.472656 12.847656 123.570312 12.632812 C 123.597656 12.566406 123.628906 12.503906 123.644531 12.4375 C 123.65625 12.371094 123.65625 12.308594 123.660156 12.242188 C 123.679688 11.902344 123.855469 11.574219 123.820312 11.234375 C 123.808594 11.109375 123.828125 10.984375 123.785156 10.867188 C 123.742188 10.75 123.679688 10.636719 123.617188 10.527344 C 123.457031 10.257812 123.296875 9.984375 123.089844 9.742188 C 123.035156 9.8125 122.972656 9.882812 122.917969 9.957031 C 122.863281 10.027344 122.808594 10.097656 122.753906 10.167969 C 122.519531 10.445312 122.230469 10.683594 121.902344 10.839844 C 121.710938 10.929688 121.507812 10.996094 121.328125 11.101562 C 121.242188 11.15625 121.160156 11.214844 121.070312 11.253906 C 120.964844 11.296875 120.851562 11.308594 120.734375 11.3125 C 120.558594 11.320312 120.371094 11.300781 120.222656 11.203125 C 120.164062 11.167969 120.140625 11.097656 120.105469 11.035156 C 120.066406 10.953125 120.023438 10.875 119.984375 10.792969 C 119.945312 10.71875 119.90625 10.644531 119.875 10.566406 C 119.78125 10.332031 119.746094 10.082031 119.722656 9.835938 C 119.699219 9.632812 119.6875 9.433594 119.683594 9.230469 C 119.675781 8.976562 119.785156 8.714844 119.804688 8.460938 C 119.824219 8.253906 119.789062 8.042969 119.851562 7.847656 C 119.902344 7.691406 119.964844 7.523438 120.046875 7.382812 C 120.226562 7.085938 120.402344 6.789062 120.578125 6.496094 C 120.589844 6.472656 120.605469 6.453125 120.625 6.4375 C 120.664062 6.402344 120.722656 6.402344 120.773438 6.417969 C 120.824219 6.433594 120.867188 6.464844 120.914062 6.488281 C 121.027344 6.550781 121.160156 6.570312 121.273438 6.636719 C 121.292969 6.648438 121.308594 6.660156 121.320312 6.679688 C 121.328125 6.699219 121.328125 6.722656 121.335938 6.742188 C 121.347656 6.789062 121.382812 6.824219 121.414062 6.859375 C 121.441406 6.898438 121.460938 6.949219 121.4375 6.992188 C 121.429688 7.007812 121.414062 7.023438 121.398438 7.035156 C 121.328125 7.089844 121.25 7.132812 121.199219 7.203125 C 121.167969 7.242188 121.148438 7.285156 121.121094 7.320312 C 120.980469 7.519531 120.675781 7.5625 120.558594 7.773438 C 120.515625 7.855469 120.507812 7.949219 120.503906 8.042969 C 120.5 8.230469 120.527344 8.417969 120.582031 8.597656 C 120.625 8.730469 120.714844 8.835938 120.789062 8.957031 C 120.824219 9.015625 120.863281 9.074219 120.90625 9.125 C 120.9375 9.167969 120.972656 9.207031 121.003906 9.25 C 121.039062 9.304688 121.0625 9.367188 121.085938 9.429688 C 121.128906 9.347656 121.15625 9.25 121.183594 9.164062 C 121.226562 9.03125 121.316406 8.914062 121.417969 8.820312 C 121.523438 8.726562 121.644531 8.652344 121.761719 8.578125 C 121.757812 8.390625 121.847656 8.21875 121.929688 8.054688 C 121.984375 7.953125 122.039062 7.851562 122.109375 7.757812 C 122.410156 7.355469 122.949219 7.136719 123.449219 7.21875 C 123.492188 7.226562 123.539062 7.203125 123.570312 7.175781 C 123.683594 7.066406 123.796875 6.957031 123.910156 6.847656 C 123.945312 6.8125 123.984375 6.773438 124.007812 6.730469 C 124.066406 6.636719 124.066406 6.519531 124.035156 6.414062 C 124.003906 6.3125 123.945312 6.21875 123.882812 6.125 C 123.84375 6.066406 123.804688 6.003906 123.746094 5.960938 C 123.707031 5.933594 123.664062 5.914062 123.621094 5.886719 C 123.460938 5.796875 123.339844 5.640625 123.164062 5.578125 C 122.929688 5.496094 122.746094 5.265625 122.65625 5.03125 C 122.621094 4.941406 122.609375 4.839844 122.617188 4.742188 C 122.625 4.671875 122.640625 4.605469 122.65625 4.539062 C 122.679688 4.445312 122.703125 4.347656 122.726562 4.253906 C 122.734375 4.21875 122.742188 4.183594 122.757812 4.148438 C 122.792969 4.082031 122.855469 4.03125 122.914062 3.984375 C 123.046875 3.878906 123.183594 3.777344 123.332031 3.695312 C 123.480469 3.617188 123.644531 3.558594 123.8125 3.550781 C 123.898438 3.546875 123.980469 3.554688 124.0625 3.566406 C 124.167969 3.582031 124.273438 3.601562 124.367188 3.644531 C 124.464844 3.6875 124.542969 3.804688 124.617188 3.882812 Z M 124.617188 3.882812 " fill-opacity="1" fill-rule="nonzero"/></g><g clip-path="url(#884dc927dd)"><path fill="#000000" d="M 23.414062 21.898438 C 22.136719 24.09375 19.539062 24.9375 16.800781 24.433594 C 13.976562 23.9375 11.40625 22.652344 9.074219 21.144531 C 13.046875 23.398438 20.449219 26.125 22.539062 20.996094 C 22.734375 20.535156 22.84375 20.09375 22.875 19.671875 C 22.730469 20.183594 22.488281 20.671875 22.195312 21.132812 C 21.039062 23.019531 18.789062 23.789062 16.457031 23.421875 C 14.046875 23.0625 11.882812 22.03125 9.929688 20.804688 C 13.265625 22.625 19.535156 24.773438 21.472656 20.386719 C 21.652344 19.992188 21.753906 19.617188 21.796875 19.257812 C 21.65625 19.695312 21.4375 20.113281 21.171875 20.507812 C 20.125 22.132812 18.179688 22.832031 16.191406 22.574219 C 14.136719 22.320312 12.308594 21.496094 10.667969 20.5 C 13.480469 21.96875 18.792969 23.652344 20.574219 19.894531 C 20.738281 19.554688 20.839844 19.234375 20.882812 18.929688 C 20.75 19.304688 20.550781 19.664062 20.3125 20.003906 C 19.371094 21.398438 17.683594 22.035156 15.984375 21.859375 C 14.230469 21.691406 12.6875 21.03125 11.3125 20.226562 C 13.679688 21.410156 18.183594 22.714844 19.816406 19.496094 C 19.96875 19.207031 20.0625 18.933594 20.109375 18.675781 C 19.984375 18.992188 19.804688 19.300781 19.589844 19.59375 C 18.746094 20.796875 17.277344 21.375 15.828125 21.261719 C 14.332031 21.15625 13.027344 20.632812 11.871094 19.980469 C 13.863281 20.929688 17.691406 21.9375 19.179688 19.175781 C 19.316406 18.925781 19.40625 18.695312 19.453125 18.472656 C 19.339844 18.746094 19.175781 19.011719 18.984375 19.265625 C 18.222656 20.300781 16.953125 20.820312 15.710938 20.757812 C 14.433594 20.703125 13.328125 20.285156 12.355469 19.761719 C 14.039062 20.519531 17.289062 21.289062 18.644531 18.917969 C 18.941406 18.410156 19.003906 17.980469 18.902344 17.609375 C 14.945312 16.445312 9.726562 14.324219 9.207031 10.296875 C 9.085938 9.25 9.371094 8.253906 9.832031 7.335938 C 10.917969 5.058594 13.441406 4.015625 16.226562 4.296875 C 19.101562 4.566406 21.785156 5.636719 24.25 6.945312 C 20.078125 5.027344 12.425781 2.910156 10.785156 8.164062 C 10.628906 8.636719 10.558594 9.082031 10.5625 9.503906 C 10.664062 8.984375 10.863281 8.480469 11.117188 8 C 12.109375 6.039062 14.292969 5.09375 16.660156 5.273438 C 19.105469 5.4375 21.363281 6.289062 23.425781 7.347656 C 19.925781 5.808594 13.460938 4.175781 11.90625 8.683594 C 11.761719 9.089844 11.6875 9.46875 11.679688 9.828125 C 11.78125 9.382812 11.964844 8.953125 12.195312 8.539062 C 13.101562 6.84375 14.988281 5.996094 17.003906 6.09375 C 19.082031 6.179688 20.984375 6.855469 22.710938 7.710938 C 19.769531 6.476562 14.304688 5.230469 12.847656 9.101562 C 12.714844 9.449219 12.640625 9.777344 12.621094 10.082031 C 12.722656 9.699219 12.890625 9.328125 13.101562 8.972656 C 13.921875 7.511719 15.554688 6.746094 17.269531 6.785156 C 19.039062 6.8125 20.644531 7.34375 22.09375 8.035156 C 19.621094 7.050781 14.996094 6.109375 13.640625 9.4375 C 13.519531 9.71875 13.453125 9.984375 13.421875 10.234375 C 13.425781 10.234375 13.425781 10.238281 13.429688 10.238281 C 13.527344 9.921875 13.675781 9.617188 13.859375 9.320312 C 14.601562 8.058594 16.019531 7.371094 17.480469 7.367188 C 18.988281 7.351562 20.339844 7.765625 21.554688 8.324219 C 19.472656 7.539062 15.558594 6.84375 14.304688 9.703125 C 14.191406 9.960938 14.121094 10.199219 14.09375 10.417969 C 14.183594 10.140625 14.328125 9.863281 14.496094 9.597656 C 15.164062 8.507812 16.394531 7.894531 17.640625 7.855469 C 18.925781 7.808594 20.066406 8.136719 21.085938 8.578125 C 19.335938 7.960938 16.015625 7.453125 14.867188 9.914062 C 14.738281 10.179688 14.667969 10.425781 14.648438 10.644531 C 14.734375 10.675781 14.816406 10.707031 14.90625 10.738281 C 18.773438 12.195312 24.121094 14.765625 24.289062 18.984375 C 24.320312 20.042969 23.949219 21.019531 23.414062 21.898438 Z M 23.414062 21.898438 " fill-opacity="1" fill-rule="nonzero"/></g></svg>